<?xml version="1.0" encoding="UTF-8"?>
<svg version="1.1" xmlns="http://www.w3.org/2000/svg" width="200" height="200">
<path d="M0 0 C66 0 132 0 200 0 C200 66 200 132 200 200 C134 200 68 200 0 200 C0 134 0 68 0 0 Z " fill="#1B1B1B" transform="translate(0,0)"/>
<path d="M0 0 C66 0 132 0 200 0 C200 66 200 132 200 200 C134 200 68 200 0 200 C0 134 0 68 0 0 Z M99 4 C97.77296337 5.63079211 96.60453266 7.30574116 95.4609375 8.99609375 C88.64583054 17.96944604 81.89586147 26.30832437 70.20849609 28.1875 C56.23559576 29.69770986 41.99183089 28.98011059 28 28 C28.03854599 28.55027359 28.07709198 29.10054718 28.11680603 29.66749573 C30.98293728 73.17178298 30.98293728 73.17178298 21.8125 84.30859375 C16.64228524 90.05535568 10.48343354 94.82425485 4 99 C5.47704985 102.76522015 7.40367117 104.15911713 10.75390625 106.33203125 C19.31289636 112.6666843 26.43157137 118.64407274 28.06787109 129.57373047 C29.38491308 142.72091107 28.80095768 156.07130963 27.98309326 169.23675537 C27.79444999 171.0278815 27.79444999 171.0278815 29 172 C30.35537217 172.00267117 31.71097072 171.93567015 33.06298828 171.84033203 C73.55046407 169.34904457 73.55046407 169.34904457 84.23828125 178.18359375 C89.98985269 183.36945379 94.78180621 189.52677323 99 196 C102.76522015 194.52295015 104.15911713 192.59632883 106.33203125 189.24609375 C112.6666843 180.68710364 118.64407274 173.56842863 129.57373047 171.93212891 C142.72091107 170.61508692 156.07130963 171.19904232 169.23675537 172.01690674 C171.0278815 172.20555001 171.0278815 172.20555001 172 171 C172.00267117 169.64462783 171.93567015 168.28902928 171.84033203 166.93701172 C169.34904457 126.44953593 169.34904457 126.44953593 178.18359375 115.76171875 C183.36945379 110.01014731 189.52677323 105.21819379 196 101 C194.52295015 97.23477985 192.59632883 95.84088287 189.24609375 93.66796875 C180.68710364 87.3333157 173.56842863 81.35592726 171.93212891 70.42626953 C170.61508692 57.27908893 171.19904232 43.92869037 172.01690674 30.76324463 C172.20555001 28.9721185 172.20555001 28.9721185 171 28 C169.64462783 27.99732883 168.28902928 28.06432985 166.93701172 28.15966797 C126.41167425 30.65325619 126.41167425 30.65325619 115.83203125 21.81640625 C110.73823806 17.18451037 106.46881236 11.76924475 102.5925293 6.09545898 C102.06699463 5.40395752 101.54145996 4.71245605 101 4 C100.34 4 99.68 4 99 4 Z " fill="#FEFEFE" transform="translate(0,0)"/>
<path d="M0 0 C7.9110651 3.57552506 12.56172647 10.83048123 17 18 C17 17.01 17 16.02 17 15 C24.64247519 12.34174776 32.08348105 12.33336443 40 14 C41.76483087 21.82173044 41.69049743 29.43297597 39 37 C38.42636719 36.84273437 37.85273438 36.68546875 37.26171875 36.5234375 C30.13180577 34.87333674 25.15613485 35.90430445 18.9453125 39.7109375 C17.2950234 40.80450256 15.64723656 41.90184229 14 43 C14.99 44.98 14.99 44.98 16 47 C15.505 45.02 15.505 45.02 15 43 C26.11806292 35.68489623 26.11806292 35.68489623 32 36 C39.86723065 38.57788712 46.55300157 43.84874318 52 50 C52.9296875 52.06640625 52.9296875 52.06640625 53 54 C49.13153271 61.08949235 40.84226229 66.15122746 34 70 C35.65 69.67 37.3 69.34 39 69 C40.2263757 71.45275141 40.11415314 73.0505781 40.09765625 75.7890625 C40.09282227 77.20058594 40.09282227 77.20058594 40.08789062 78.640625 C40.07532227 80.11789063 40.07532227 80.11789063 40.0625 81.625 C40.05798828 82.61757812 40.05347656 83.61015625 40.04882812 84.6328125 C40.03702145 87.0886016 40.020554 89.54427104 40 92 C31.95287473 93.675962 24.8710941 93.33217603 17 91 C17.15726562 90.41476563 17.31453125 89.82953125 17.4765625 89.2265625 C19.38301427 81.11702884 17.0114588 75.99139963 13 69 C13.28875 69.556875 13.5775 70.11375 13.875 70.6875 C16.38209348 75.84096993 18.2424591 80.25362665 17 86 C14.24987606 93.27196235 8.86159884 99.9772704 3 105 C-1 105 -1 105 -3.18359375 103.34765625 C-9.06164799 97.38810386 -14.97292328 91.35526341 -15.6875 82.625 C-15.38466133 76.72486736 -12.06835117 71.88561868 -9 67 C-7.68 67 -6.36 67 -5 67 C-6.32 66.34 -7.64 65.68 -9 65 C-9 64.34 -9 63.68 -9 63 C-9.66 63 -10.32 63 -11 63 C-11.99 61.02 -12.98 59.04 -14 57 C-14 57.99 -14 58.98 -14 60 C-14 61.32 -14 62.64 -14 64 C-19.5960193 67.33379873 -24.77911743 70.03480347 -31.421875 69.6796875 C-39.64958239 67.51056464 -46.39780655 60.11843654 -52 54 C-48.78827616 46.84020587 -42.35223878 42.27803836 -36 38 C-43.34282966 40.06517084 -48.82988127 46.66831506 -54 52 C-52.49049406 55.57087427 -50.39393774 57.81385442 -47.625 60.5 C-46.85414062 61.2528125 -46.08328125 62.005625 -45.2890625 62.78125 C-43.043213 65.01239269 -43.043213 65.01239269 -40.6640625 66.953125 C-39 69 -39 69 -39.046875 71.578125 C-39.27890625 72.45984375 -39.5109375 73.3415625 -39.75 74.25 C-40.08257812 75.58804688 -40.08257812 75.58804688 -40.421875 76.953125 C-40.61265625 77.62859375 -40.8034375 78.3040625 -41 79 C-46.99500997 74.03805145 -52.46427037 68.6523376 -57.9375 63.125 C-58.81212891 62.24585938 -59.68675781 61.36671875 -60.58789062 60.4609375 C-62.72757048 58.3095654 -64.86486597 56.15588208 -67 54 C-65.41576811 50.10440412 -62.75252743 47.47885592 -59.80859375 44.578125 C-59.30328629 44.07327576 -58.79797882 43.56842651 -58.27735901 43.04827881 C-57.21307011 41.98700128 -56.14636151 40.92814545 -55.07739258 39.87158203 C-53.4344325 38.24696675 -51.79970383 36.61440222 -50.16601562 34.98046875 C-49.13068068 33.95004601 -48.0948893 32.92008165 -47.05859375 31.890625 C-46.56693222 31.40007629 -46.07527069 30.90952759 -45.56871033 30.40411377 C-42.1160725 27 -42.1160725 27 -41 27 C-40.67 28.65 -40.34 30.3 -40 32 C-39.90912109 30.55367187 -39.90912109 30.55367187 -39.81640625 29.078125 C-39.73261719 27.81484375 -39.64882813 26.5515625 -39.5625 25.25 C-39.48128906 23.99703125 -39.40007813 22.7440625 -39.31640625 21.453125 C-39.07280246 18.79453545 -38.68652567 16.55065055 -38 14 C-34.9166866 13.97088679 -31.83340875 13.95316318 -28.75 13.9375 C-27.87730469 13.92912109 -27.00460938 13.92074219 -26.10546875 13.91210938 C-25.26113281 13.90888672 -24.41679688 13.90566406 -23.546875 13.90234375 C-22.38430176 13.89448853 -22.38430176 13.89448853 -21.19824219 13.88647461 C-19.00716402 13.99963002 -17.10362139 14.39447552 -15 15 C-15.2475 15.7425 -15.2475 15.7425 -15.5 16.5 C-17.01027141 24.05135707 -15.76134118 28.30670351 -11.99609375 34.8984375 C-11.66738281 35.59195313 -11.33867188 36.28546875 -11 37 C-11.495 37.99 -11.495 37.99 -12 39 C-12.77085938 38.21753906 -13.54171875 37.43507812 -14.3359375 36.62890625 C-15.34882573 35.60663943 -16.36185384 34.58451119 -17.375 33.5625 C-17.88289063 33.04623047 -18.39078125 32.52996094 -18.9140625 31.99804688 C-21.68568936 29.142867 -21.68568936 29.142867 -25 27 C-20.20497249 32.59967378 -20.20497249 32.59967378 -15.0625 37.875 C-13 40 -13 40 -13 42 C-10.85531259 41.19596619 -10.85531259 41.19596619 -10.22265625 39.19921875 C-9.92692964 36.27826994 -10.81665323 35.22400373 -12.4375 32.8125 C-15.19165892 28.05672699 -16.38531372 24.42581206 -15 19 C-11.42190316 11.46659732 -6.1321496 5.5587538 0 0 Z " fill="#313131" transform="translate(99,47)"/>
<path d="M0 0 C7.57486179 -1.9478216 14.52255014 -2.73547331 22 0 C27.78406295 3.58334656 32.55742078 8.4342372 37.3125 13.25 C37.93894409 13.86846802 38.56538818 14.48693604 39.21081543 15.12414551 C50.56331272 26.49304706 50.56331272 26.49304706 51.29296875 34.921875 C51.22729492 37.89355469 51.22729492 37.89355469 51 40 C51.61786377 39.84772949 52.23572754 39.69545898 52.87231445 39.53857422 C57.90906929 38.86370141 61.5024182 39.37488907 65.62646484 42.36425781 C69.73319212 45.69185132 73.47615939 49.36788248 77.1875 53.125 C77.84664398 53.77616791 78.50578796 54.42733582 79.18490601 55.09823608 C92.5691085 68.50059309 92.5691085 68.50059309 93.01489258 78.90771484 C92.72208249 83.11019311 92.09471032 86.92734207 91 91 C91.66 91 92.32 91 93 91 C92.67515625 89.73671875 92.3503125 88.4734375 92.015625 87.171875 C90.83287886 80.2248878 90.18967629 73.32219058 94.21044922 67.1383667 C97.971387 62.25628427 102.3050824 57.94210525 106.75 53.6875 C107.40262817 53.06105591 108.05525635 52.43461182 108.72766113 51.78918457 C121.37023284 39.80617055 121.37023284 39.80617055 129.25 39.9375 C131.10625 39.9684375 131.10625 39.9684375 133 40 C132.88748901 38.95730957 132.88748901 38.95730957 132.77270508 37.89355469 C132.58419445 29.36362404 135.62798969 24.87534418 141.14865112 18.84759521 C142.96504961 16.94941789 144.81793627 15.09575988 146.6875 13.25 C147.62499084 12.30054504 147.62499084 12.30054504 148.5814209 11.33190918 C155.52878276 4.39433672 161.54288042 -1.50854106 171.83520508 -1.94238281 C176.05025353 -1.66418044 179.9048478 -1.05303914 184 0 C183.57847656 0.45890625 183.15695313 0.9178125 182.72265625 1.390625 C182.17480469 2.00421875 181.62695312 2.6178125 181.0625 3.25 C180.51722656 3.85328125 179.97195312 4.4565625 179.41015625 5.078125 C177.87050869 6.87183918 177.87050869 6.87183918 177.68286133 8.93823242 C176.7680462 11.7003396 174.96114621 12.67995317 172.70381165 14.38627625 C167.7469966 18.3468382 164.80466272 21.95407124 163.93603516 28.36474609 C163.48799956 34.64169698 163.63863534 40.90245739 163.8125 47.1875 C163.83308339 49.38862657 163.84810513 51.58981254 163.85742188 53.79101562 C163.87082253 56.87131832 163.89253382 59.94895093 163.95796204 63.02861023 C163.97674911 63.93077774 163.99553619 64.83294525 164.01489258 65.76245117 C164.03554276 66.55898605 164.05619293 67.35552094 164.07746887 68.17619324 C164 70 164 70 163 71 C161.64462783 71.00267117 160.28902928 70.93567015 158.93701172 70.84033203 C131.95011411 68.01479132 131.95011411 68.01479132 107.76171875 77.18359375 C102.01014731 82.36945379 97.21819379 88.52677323 93 95 C89.23477985 93.52295015 87.84088287 91.59632883 85.66796875 88.24609375 C79.3333157 79.68710364 73.35592726 72.56842863 62.42626953 70.93212891 C49.27908893 69.61508692 35.92869037 70.19904232 22.76324463 71.01690674 C21 71 21 71 20 70 C19.90706077 68.5729978 19.88253435 67.14144587 19.88647461 65.71142578 C19.88655014 64.8002298 19.88662567 63.88903381 19.88670349 62.95022583 C19.89186478 61.95860443 19.89702606 60.96698303 19.90234375 59.9453125 C19.9037587 58.9328244 19.90517365 57.9203363 19.90663147 56.87716675 C19.91224868 53.62641501 19.92479621 50.37573104 19.9375 47.125 C19.94251347 44.93880308 19.94707664 42.75260508 19.95117188 40.56640625 C19.9610298 35.74437528 19.97525969 30.92237944 19.99327087 26.10037231 C20.21019959 22.12778065 20.21019959 22.12778065 18.1640625 18.83935547 C17.32617188 18.02354004 16.48828125 17.20772461 15.625 16.3671875 C14.72265625 15.47902344 13.8203125 14.59085938 12.890625 13.67578125 C11.9274728 12.7417857 10.96392605 11.80819687 10 10.875 C8.12153389 9.04255001 6.24791924 7.20532395 4.375 5.3671875 C3.53710938 4.55362793 2.69921875 3.74006836 1.8359375 2.90185547 C0 1 0 1 0 0 Z " fill="#252525" transform="translate(8,101)"/>
<path d="M0 0 C3.76522015 1.47704985 5.15911713 3.40367117 7.33203125 6.75390625 C13.6666843 15.31289636 19.64407274 22.43157137 30.57373047 24.06787109 C43.72091107 25.38491308 57.07130963 24.80095768 70.23675537 23.98309326 C72 24 72 24 73 25 C73.00267117 26.35537217 72.93567015 27.71097072 72.84033203 29.06298828 C70.01479132 56.04988589 70.01479132 56.04988589 79.18359375 80.23828125 C84.36945379 85.98985269 90.52677323 90.78180621 97 95 C95.49053489 98.18086518 93.92058175 100.29869906 91.375 102.75 C90.74335938 103.36359375 90.11171875 103.9771875 89.4609375 104.609375 C88.97882813 105.06828125 88.49671875 105.5271875 88 106 C87.01 105.67 86.02 105.34 85 105 C87.31 102.69 89.62 100.38 92 98 C84.76493328 96.11562571 78.14292127 95.37087726 71 98 C65.45355248 101.45270634 60.87398927 106.12118361 56.3125 110.75 C55.71247162 111.34454987 55.11244324 111.93909973 54.49423218 112.55166626 C47.11055039 119.9717938 42.0240517 125.98685532 42 137 C41.29834717 137.00225586 40.59669434 137.00451172 39.8737793 137.00683594 C29.00466142 137.83478999 23.1323537 143.86249539 15.8125 151.25 C15.20481781 151.84881989 14.59713562 152.44763977 13.97103882 153.06460571 C7.15285253 159.88097245 1.61913819 165.74772299 0.77026367 175.76269531 C0.83093058 179.96379118 1.21876349 183.86821973 2 188 C1.34 188 0.68 188 0 188 C0.25265625 186.73671875 0.5053125 185.4734375 0.765625 184.171875 C1.71951042 176.0699931 1.41388889 168.95962043 -3.61816406 162.22607422 C-6.96061582 158.13742912 -10.61737192 154.39259054 -14.375 150.6875 C-14.99596558 150.06105591 -15.61693115 149.43461182 -16.25671387 148.78918457 C-24.50451457 140.30881664 -24.50451457 140.30881664 -35.4140625 136.70703125 C-37.97952923 136.7268802 -37.97952923 136.7268802 -40 137 C-40.00153076 136.29907227 -40.00306152 135.59814453 -40.00463867 134.87597656 C-40.82862425 123.98333266 -46.91097302 118.08394787 -54.3125 110.75 C-54.91293121 110.14070648 -55.51336243 109.53141296 -56.13198853 108.90365601 C-62.74630075 102.28758099 -68.42486736 96.73389701 -78.17724609 96.06860352 C-82.1573617 96.39108004 -86.07809907 97.24899769 -90 98 C-83.07 104.93 -76.14 111.86 -69 119 C-69.99 119.99 -69.99 119.99 -71 121 C-78.92 113.08 -86.84 105.16 -95 97 C-92.9020105 92.804021 -92.01332865 92.11871358 -88.24609375 89.703125 C-80.83950281 84.26195065 -73.55579476 78.60439928 -71.36108398 69.28778076 C-69.13642867 54.41352545 -70.08028871 38.9591252 -71 24 C-70.44972641 24.03854599 -69.89945282 24.07709198 -69.33250427 24.11680603 C-40.55888579 27.27247216 -40.55888579 27.27247216 -14.69140625 17.8125 C-8.94464432 12.64228524 -4.17574515 6.48343354 0 0 Z M-1 4 C-12.73756983 15.71424346 -24.47230036 27.43132247 -36.20362854 39.15181637 C-41.65034873 44.59337304 -47.09800543 50.033986 -52.54785156 55.47241211 C-57.29611014 60.21072554 -62.04262776 64.95077474 -66.78703403 69.69294554 C-69.30086172 72.20546583 -71.81557209 74.71708853 -74.33236694 77.22663689 C-77.13704587 80.0233053 -79.93783749 82.82384624 -82.73828125 85.62475586 C-83.57984772 86.46272705 -84.42141418 87.30069824 -85.28848267 88.1640625 C-86.04575653 88.92271103 -86.8030304 89.68135956 -87.58325195 90.46299744 C-88.57878838 91.45715117 -88.57878838 91.45715117 -89.59443665 92.47138882 C-91.11280976 93.7765858 -91.11280976 93.7765858 -91 95 C-83.43918982 96.94420833 -76.4484454 97.80008889 -69 95 C-63.2205932 91.24218237 -58.4308173 86.20549018 -53.6875 81.25 C-53.06105591 80.59737183 -52.43461182 79.94474365 -51.78918457 79.27233887 C-44.39633595 72.02145075 -44.39633595 72.02145075 -40 63 C-40 66.96 -40 70.92 -40 75 C-40.33 73.35 -40.66 71.7 -41 70 C-46.99500997 74.96194855 -52.46427037 80.3476624 -57.9375 85.875 C-58.81212891 86.75414063 -59.68675781 87.63328125 -60.58789062 88.5390625 C-62.72757048 90.6904346 -64.86486597 92.84411792 -67 95 C-65.41576811 98.89559588 -62.75252743 101.52114408 -59.80859375 104.421875 C-59.30328629 104.92672424 -58.79797882 105.43157349 -58.27735901 105.95172119 C-57.21307011 107.01299872 -56.14636151 108.07185455 -55.07739258 109.12841797 C-53.4344325 110.75303325 -51.79970383 112.38559778 -50.16601562 114.01953125 C-49.13068068 115.04995399 -48.0948893 116.07991835 -47.05859375 117.109375 C-46.56693222 117.59992371 -46.07527069 118.09047241 -45.56871033 118.59588623 C-43.61772792 120.96928575 -43.61772792 120.96928575 -41 122 C-39.39312948 118.22385427 -38.559067 115.11030648 -39 111 C-42.47761698 106.60692687 -46.5870283 103.41500555 -51 100 C-52.02187839 99.02236789 -53.03639157 98.03511294 -54 97 C-52.48903853 93.45287654 -50.41167865 91.14336485 -47.6875 88.4375 C-46.92824219 87.67308594 -46.16898438 86.90867187 -45.38671875 86.12109375 C-43.04960156 84.04408126 -40.72886923 82.51174526 -38 81 C-37.67 81.33 -37.34 81.66 -37 82 C-37.58007812 82.43570313 -38.16015625 82.87140625 -38.7578125 83.3203125 C-43.52267651 86.9529316 -47.8704731 90.65870249 -52 95 C-48.6419358 102.42991982 -41.30865759 108.57969226 -34 112 C-26.61872225 113.78251278 -21.34124831 111.07398791 -15.0546875 107.3125 C-14.37664062 106.879375 -13.69859375 106.44625 -13 106 C-13.350625 105.38125 -13.70125 104.7625 -14.0625 104.125 C-14.371875 103.42375 -14.68125 102.7225 -15 102 C-14.67 101.34 -14.34 100.68 -14 100 C-13.01 101.98 -12.02 103.96 -11 106 C-10.34 106 -9.68 106 -9 106 C-9 106.66 -9 107.32 -9 108 C-6.53673288 109.6446674 -6.53673288 109.6446674 -4 111 C-5.65 110.67 -7.3 110.34 -9 110 C-14.32123924 118.26410965 -14.32123924 118.26410965 -15.57421875 127.75390625 C-13.30341569 136.63629917 -6.53346541 142.98921183 0 149 C7.2496129 146.00129648 13.3119594 138.00581962 16.4140625 130.93359375 C18.30328287 124.69916653 16.82544281 119.65088563 14 114 C17.69956276 120.20998035 19.16588755 124.98580692 17.48046875 132.234375 C17.32191406 132.81703125 17.16335937 133.3996875 17 134 C24.8710941 136.33217603 31.95287473 136.675962 40 135 C40.02894547 131.54168414 40.04678 128.08339928 40.0625 124.625 C40.07087891 123.64015625 40.07925781 122.6553125 40.08789062 121.640625 C40.09111328 120.69960937 40.09433594 119.75859375 40.09765625 118.7890625 C40.10289307 117.91975098 40.10812988 117.05043945 40.11352539 116.15478516 C40.14122351 113.94950006 40.14122351 113.94950006 39 112 C37.68 112 36.36 112 35 112 C37.64 110.68 40.28 109.36 43 108 C43 108.66 43 109.32 43 110 C42.34 110 41.68 110 41 110 C41.144375 111.258125 41.28875 112.51625 41.4375 113.8125 C41.51871094 114.52019531 41.59992188 115.22789063 41.68359375 115.95703125 C41.97170735 118.19396393 41.97170735 118.19396393 43 121 C48.60496402 118.67876053 52.49493629 113.83886786 56.70117188 109.61450195 C58.25009495 108.06240485 59.8119071 106.52413858 61.375 104.98632812 C62.36018474 104.00341511 63.34458758 103.01971763 64.328125 102.03515625 C65.2243457 101.1419165 66.12056641 100.24867676 67.04394531 99.32836914 C69.3216177 97.12399284 69.3216177 97.12399284 69 94 C69.66 94.33 70.32 94.66 71 95 C72.6674606 95.08426094 74.33825187 95.10725143 76.0078125 95.09765625 C76.99394531 95.09443359 77.98007813 95.09121094 78.99609375 95.08789062 C80.54490234 95.07532227 80.54490234 95.07532227 82.125 95.0625 C83.16527344 95.05798828 84.20554688 95.05347656 85.27734375 95.04882812 C87.85161962 95.03701952 90.42578146 95.02055075 93 95 C88.45561817 89.55076983 83.63534863 84.49816143 78.60791016 79.49438477 C77.78773407 78.67406265 76.96755798 77.85374054 76.12252808 77.00856018 C73.43040493 74.3171297 70.73476475 71.62925153 68.0390625 68.94140625 C66.16411824 67.06832847 64.28937215 65.19505444 62.41488647 63.32151794 C57.99718043 58.90690868 53.57693357 54.49485275 49.15574777 50.08372873 C44.11864834 45.05784199 39.08441902 40.02908452 34.05041814 35.00009453 C23.70344935 24.66355267 13.35291534 14.33058584 3 4 C2.67 5.32 2.34 6.64 2 8 C1.34 8 0.68 8 0 8 C-0.495 6.02 -0.495 6.02 -1 4 Z " fill="#252525" transform="translate(99,4)"/>
<path d="M0 0 C3.76522015 1.47704985 5.15911713 3.40367117 7.33203125 6.75390625 C13.6666843 15.31289636 19.64407274 22.43157137 30.57373047 24.06787109 C43.72091107 25.38491308 57.07130963 24.80095768 70.23675537 23.98309326 C72 24 72 24 73 25 C73.00267117 26.35537217 72.93567015 27.71097072 72.84033203 29.06298828 C70.01479132 56.04988589 70.01479132 56.04988589 79.18359375 80.23828125 C84.36945379 85.98985269 90.52677323 90.78180621 97 95 C95.49053489 98.18086518 93.92058175 100.29869906 91.375 102.75 C90.74335938 103.36359375 90.11171875 103.9771875 89.4609375 104.609375 C88.97882813 105.06828125 88.49671875 105.5271875 88 106 C87.01 105.67 86.02 105.34 85 105 C87.31 102.69 89.62 100.38 92 98 C84.75204587 96.02328524 78.14897877 95.26237865 71 98 C65.26210081 101.72203031 60.49116367 106.67868994 55.75 111.5625 C55.12178345 112.20231812 54.49356689 112.84213623 53.84631348 113.50134277 C52.03085706 115.37384043 50.25032801 117.2722301 48.484375 119.19140625 C47.94365356 119.76788406 47.40293213 120.34436188 46.8458252 120.93830872 C43.33942688 124.91714332 42.27146213 127.69173501 42 133 C41.67 133 41.34 133 41 133 C40.93941406 132.07058594 40.87882812 131.14117187 40.81640625 130.18359375 C40.20428448 121.05853115 40.20428448 121.05853115 39 112 C37.948125 112.495 37.948125 112.495 36.875 113 C33.73996884 114.09044562 31.29436818 114.15322643 28 114 C28 113.67 28 113.34 28 113 C33 111.33333333 38 109.66666667 43 108 C43 108.66 43 109.32 43 110 C42.34 110 41.68 110 41 110 C41.99 115.445 41.99 115.445 43 121 C48.8743367 115.95913899 54.4623897 110.72033689 59.9375 105.25 C60.70384766 104.49589844 61.47019531 103.74179688 62.25976562 102.96484375 C62.98744141 102.23910156 63.71511719 101.51335937 64.46484375 100.765625 C65.120896 100.11368164 65.77694824 99.46173828 66.45288086 98.79003906 C68.21994038 96.97534172 68.21994038 96.97534172 69 94 C76.59 94 84.18 94 92 94 C62.63 64.63 33.26 35.26 3 5 C2.67 5.99 2.34 6.98 2 8 C1.34 8 0.68 8 0 8 C-0.495 6.515 -0.495 6.515 -1 5 C-16.18 20.18 -31.36 35.36 -47 51 C-47.33 50.01 -47.66 49.02 -48 48 C-47.39937744 47.40461426 -46.79875488 46.80922852 -46.17993164 46.19580078 C-43.95461906 43.98752141 -41.73155962 41.77700557 -39.51000977 39.56494141 C-38.54769305 38.60765619 -37.58448108 37.65127006 -36.62036133 36.69580078 C-35.23544555 35.32300212 -33.85400009 33.94670528 -32.47265625 32.5703125 C-31.64000244 31.74289551 -30.80734863 30.91547852 -29.94946289 30.06298828 C-27.9555946 28.15224807 -27.9555946 28.15224807 -27 26 C-40.86 26 -54.72 26 -69 26 C-69 40.19 -69 54.38 -69 69 C-69.33 69 -69.66 69 -70 69 C-70 54.48 -70 39.96 -70 25 C-62.905 25.33 -55.81 25.66 -48.5 26 C-35.31507687 26.16011258 -23.99707619 26.20600065 -13.84112549 16.99282837 C-8.63485201 11.82533051 -4.09339328 6.07767823 0 0 Z " fill="#181818" transform="translate(99,4)"/>
<path d="M0 0 C7.57486179 -1.9478216 14.52255014 -2.73547331 22 0 C27.78406295 3.58334656 32.55742078 8.4342372 37.3125 13.25 C37.93894409 13.86846802 38.56538818 14.48693604 39.21081543 15.12414551 C50.56331272 26.49304706 50.56331272 26.49304706 51.29296875 34.921875 C51.22729492 37.89355469 51.22729492 37.89355469 51 40 C51.61786377 39.84772949 52.23572754 39.69545898 52.87231445 39.53857422 C57.90906929 38.86370141 61.5024182 39.37488907 65.62646484 42.36425781 C69.73319212 45.69185132 73.47615939 49.36788248 77.1875 53.125 C77.84664398 53.77616791 78.50578796 54.42733582 79.18490601 55.09823608 C92.5691085 68.50059309 92.5691085 68.50059309 93.01489258 78.90771484 C92.72208249 83.11019311 92.09471032 86.92734207 91 91 C85.55531675 86.45759086 80.50002585 81.64274754 75.49438477 76.6237793 C74.2639016 75.39592461 74.2639016 75.39592461 73.00856018 74.14326477 C70.31699974 71.4560809 67.62908401 68.76528558 64.94140625 66.07421875 C63.06825621 64.20174256 61.194959 62.32941454 59.32151794 60.45722961 C55.40696426 56.5444888 51.49451003 52.62965802 47.58325195 48.71362305 C43.0571775 44.18208482 38.52748107 39.654191 33.99593121 35.12812871 C29.63192524 30.7691962 25.2707218 26.40747114 20.91071892 22.04453468 C19.05539398 20.18854062 17.1993203 18.33329472 15.34250069 16.47879601 C12.75919893 13.89801693 10.17909565 11.31408343 7.59985352 8.72924805 C6.82538879 7.95680756 6.05092407 7.18436707 5.25299072 6.38851929 C4.5563179 5.68902664 3.85964508 4.989534 3.14186096 4.2688446 C2.53150781 3.65811442 1.92115465 3.04738424 1.29230595 2.41814709 C0 1 0 1 0 0 Z " fill="#F6F6F6" transform="translate(8,101)"/>
<path d="M0 0 C1.26328125 0.32484375 2.5265625 0.6496875 3.828125 0.984375 C-0.71428414 6.42905825 -5.52912746 11.48434915 -10.5480957 16.48999023 C-11.3666655 17.31031235 -12.18523529 18.13063446 -13.02861023 18.97581482 C-15.7157941 21.66737526 -18.40658942 24.35529099 -21.09765625 27.04296875 C-22.97013244 28.91611879 -24.84246046 30.789416 -26.71464539 32.66285706 C-30.6273862 36.57741074 -34.54221698 40.48986497 -38.45825195 44.40112305 C-42.98979018 48.9271975 -47.517684 53.45689393 -52.04374629 57.98844379 C-56.4026788 62.35244976 -60.76440386 66.7136532 -65.12734032 71.07365608 C-66.98333438 72.92898102 -68.83858028 74.7850547 -70.69307899 76.64187431 C-73.27385807 79.22517607 -75.85779157 81.80527935 -78.44262695 84.38452148 C-79.21506744 85.15898621 -79.98750793 85.93345093 -80.78335571 86.73138428 C-81.48284836 87.4280571 -82.182341 88.12472992 -82.9030304 88.84251404 C-83.51376058 89.45286719 -84.12449076 90.06322035 -84.75372791 90.69206905 C-86.171875 91.984375 -86.171875 91.984375 -87.171875 91.984375 C-89.11608333 84.42356482 -89.97196389 77.4328204 -87.171875 69.984375 C-83.41405737 64.2049682 -78.37736518 59.4151923 -73.421875 54.671875 C-72.76924683 54.04543091 -72.11661865 53.41898682 -71.44421387 52.77355957 C-58.80164216 40.79054555 -58.80164216 40.79054555 -50.921875 40.921875 C-49.065625 40.9528125 -49.065625 40.9528125 -47.171875 40.984375 C-47.24688232 40.28924805 -47.32188965 39.59412109 -47.39916992 38.87792969 C-47.58768055 30.34799904 -44.54388531 25.85971918 -39.02322388 19.83197021 C-37.20682539 17.93379289 -35.35393873 16.08013488 -33.484375 14.234375 C-32.8593811 13.60140503 -32.23438721 12.96843506 -31.5904541 12.31628418 C-21.86813228 2.6076619 -14.24073176 -2.43532848 0 0 Z " fill="#F7F7F7" transform="translate(188.171875,100.015625)"/>
<path d="M0 0 C1.9478216 7.57486179 2.73547331 14.52255014 0 22 C-3.58334656 27.78406295 -8.4342372 32.55742078 -13.25 37.3125 C-13.86846802 37.93894409 -14.48693604 38.56538818 -15.12414551 39.21081543 C-26.49304706 50.56331272 -26.49304706 50.56331272 -34.921875 51.29296875 C-37.89355469 51.22729492 -37.89355469 51.22729492 -40 51 C-39.95875 52.216875 -39.9175 53.43375 -39.875 54.6875 C-39.59019081 63.08937101 -45.34327873 68.27185177 -50.6628418 74.04370117 C-51.85437824 75.30393557 -53.05017123 76.56015789 -54.25 77.8125 C-54.84881989 78.43927643 -55.44763977 79.06605286 -56.06460571 79.71182251 C-68.54708989 92.50918541 -68.54708989 92.50918541 -78.76269531 92.88745117 C-82.98497122 92.59879976 -86.88593186 92.01083777 -91 91 C-86.45759086 85.55531675 -81.64274754 80.50002585 -76.6237793 75.49438477 C-75.39592461 74.2639016 -75.39592461 74.2639016 -74.14326477 73.00856018 C-71.4560809 70.31699974 -68.76528558 67.62908401 -66.07421875 64.94140625 C-64.20174256 63.06825621 -62.32941454 61.194959 -60.45722961 59.32151794 C-56.5444888 55.40696426 -52.62965802 51.49451003 -48.71362305 47.58325195 C-44.18208482 43.0571775 -39.654191 38.52748107 -35.12812871 33.99593121 C-30.7691962 29.63192524 -26.40747114 25.2707218 -22.04453468 20.91071892 C-20.18854062 19.05539398 -18.33329472 17.1993203 -16.47879601 15.34250069 C-13.89801693 12.75919893 -11.31408343 10.17909565 -8.72924805 7.59985352 C-7.57058731 6.43815643 -7.57058731 6.43815643 -6.38851929 5.25299072 C-5.33928032 4.20798149 -5.33928032 4.20798149 -4.2688446 3.14186096 C-3.65811442 2.53150781 -3.04738424 1.92115465 -2.41814709 1.29230595 C-1 0 -1 0 0 0 Z " fill="#F8F8F8" transform="translate(99,8)"/>
<path d="M0 0 C5.44468325 4.54240914 10.49997415 9.35725246 15.50561523 14.3762207 C16.32593735 15.1947905 17.14625946 16.01336029 17.99143982 16.85673523 C20.68300026 19.5439191 23.37091599 22.23471442 26.05859375 24.92578125 C27.93174379 26.79825744 29.805041 28.67058546 31.67848206 30.54277039 C35.59303574 34.4555112 39.50548997 38.37034198 43.41674805 42.28637695 C47.9428225 46.81791518 52.47251893 51.345809 57.00406879 55.87187129 C61.36807476 60.2308038 65.7292782 64.59252886 70.08928108 68.95546532 C71.94460602 70.81145938 73.8006797 72.66670528 75.65749931 74.52120399 C78.24080107 77.10198307 80.82090435 79.68591657 83.40014648 82.27075195 C84.17461121 83.04319244 84.94907593 83.81563293 85.74700928 84.61148071 C86.4436821 85.31097336 87.14035492 86.010466 87.85813904 86.7311554 C88.46849219 87.34188558 89.07884535 87.95261576 89.70769405 88.58185291 C91 90 91 90 91 91 C83.42513821 92.9478216 76.47744986 93.73547331 69 91 C63.21593705 87.41665344 58.44257922 82.5657628 53.6875 77.75 C53.06105591 77.13153198 52.43461182 76.51306396 51.78918457 75.87585449 C40.43668728 64.50695294 40.43668728 64.50695294 39.70703125 56.078125 C39.77270508 53.10644531 39.77270508 53.10644531 40 51 C38.96875 51.04125 37.9375 51.0825 36.875 51.125 C29.80985492 50.89709209 25.63163018 48.34482069 20.5078125 43.671875 C19.91578537 43.13434097 19.32375824 42.59680695 18.71379089 42.04298401 C16.82873285 40.3004833 14.97251341 38.53223047 13.125 36.75 C12.50072113 36.15118011 11.87644226 35.55236023 11.23324585 34.93539429 C4.29502182 28.14578742 -1.50177098 22.44086311 -1.88525391 12.23730469 C-1.59972545 8.01430364 -1.01094465 4.11450313 0 0 Z " fill="#F8F8F8" transform="translate(101,8)"/>
<path d="M0 0 C7.87700308 6.75171693 7.87700308 6.75171693 10.91577148 9.78637695 C11.59594833 10.46340164 12.27612518 11.14042633 12.97691345 11.83796692 C13.68449295 12.54757065 14.39207245 13.25717438 15.12109375 13.98828125 C15.86585464 14.73208542 16.61061554 15.47588959 17.37794495 16.24223328 C18.93800619 17.80161826 20.49682236 19.36224978 22.05444336 20.92407227 C24.4511722 23.32620301 26.85325062 25.72289251 29.25585938 28.11914062 C30.77375865 29.63769989 32.29134814 31.15656889 33.80859375 32.67578125 C34.53034286 33.39550613 35.25209198 34.11523102 35.99571228 34.85676575 C36.98287987 35.84866158 36.98287987 35.84866158 37.98999023 36.8605957 C38.57288315 37.44428421 39.15577606 38.02797272 39.7563324 38.62934875 C41 40 41 40 41 41 C27.47 41 13.94 41 0 41 C0 27.47 0 13.94 0 0 Z " fill="#FAFAFA" transform="translate(31,128)"/>
<path d="M0 0 C0 13.53 0 27.06 0 41 C-13.53 41 -27.06 41 -41 41 C-34.24828307 33.12299692 -34.24828307 33.12299692 -31.21362305 30.08422852 C-30.53659836 29.40405167 -29.85957367 28.72387482 -29.16203308 28.02308655 C-28.45242935 27.31550705 -27.74282562 26.60792755 -27.01171875 25.87890625 C-25.8960125 24.76176491 -25.8960125 24.76176491 -24.75776672 23.62205505 C-23.19838174 22.06199381 -21.63775022 20.50317764 -20.07592773 18.94555664 C-17.67379699 16.5488278 -15.27710749 14.14674938 -12.88085938 11.74414062 C-11.36230011 10.22624135 -9.84343111 8.70865186 -8.32421875 7.19140625 C-7.60449387 6.46965714 -6.88476898 5.74790802 -6.14323425 5.00428772 C-5.48197037 4.34617599 -4.82070648 3.68806427 -4.1394043 3.01000977 C-3.55571579 2.42711685 -2.97202728 1.84422394 -2.37065125 1.2436676 C-1 0 -1 0 0 0 Z " fill="#FCFCFC" transform="translate(169,128)"/>
<path d="M0 0 C13.53 0 27.06 0 41 0 C41 13.53 41 27.06 41 41 C33.12299692 34.24828307 33.12299692 34.24828307 30.08422852 31.21362305 C29.40405167 30.53659836 28.72387482 29.85957367 28.02308655 29.16203308 C27.31550705 28.45242935 26.60792755 27.74282562 25.87890625 27.01171875 C25.13414536 26.26791458 24.38938446 25.52411041 23.62205505 24.75776672 C22.06199381 23.19838174 20.50317764 21.63775022 18.94555664 20.07592773 C16.5488278 17.67379699 14.14674938 15.27710749 11.74414062 12.88085938 C10.22624135 11.36230011 8.70865186 9.84343111 7.19140625 8.32421875 C6.46965714 7.60449387 5.74790802 6.88476898 5.00428772 6.14323425 C4.01712013 5.15133842 4.01712013 5.15133842 3.01000977 4.1394043 C2.42711685 3.55571579 1.84422394 2.97202728 1.2436676 2.37065125 C0 1 0 1 0 0 Z " fill="#FAFAFA" transform="translate(128,31)"/>
<path d="M0 0 C13.53 0 27.06 0 41 0 C34.24828307 7.87700308 34.24828307 7.87700308 31.21362305 10.91577148 C30.53659836 11.59594833 29.85957367 12.27612518 29.16203308 12.97691345 C28.45242935 13.68449295 27.74282562 14.39207245 27.01171875 15.12109375 C26.26791458 15.86585464 25.52411041 16.61061554 24.75776672 17.37794495 C23.19838174 18.93800619 21.63775022 20.49682236 20.07592773 22.05444336 C17.67379699 24.4511722 15.27710749 26.85325062 12.88085938 29.25585938 C11.36230011 30.77375865 9.84343111 32.29134814 8.32421875 33.80859375 C7.60449387 34.53034286 6.88476898 35.25209198 6.14323425 35.99571228 C5.48197037 36.65382401 4.82070648 37.31193573 4.1394043 37.98999023 C3.55571579 38.57288315 2.97202728 39.15577606 2.37065125 39.7563324 C1 41 1 41 0 41 C0 27.47 0 13.94 0 0 Z " fill="#FAFAFA" transform="translate(31,31)"/>
<path d="M0 0 C7.38635364 3.74748824 12.99777277 8.42710756 18 15 C14.25445351 22.71908277 7.96597587 28.65795265 0 32 C-7.31559144 33.33477458 -12.10046342 31.34246124 -18.1640625 27.3125 C-18.76992187 26.879375 -19.37578125 26.44625 -20 26 C-19.505 24.515 -19.505 24.515 -19 23 C-16.48828125 22.15625 -16.48828125 22.15625 -13.3125 21.5 C-8.80231738 20.48641556 -5.06882495 19.24856116 -1 17 C-0.34 17 0.32 17 1 17 C1 16.34 1 15.68 1 15 C0.195625 14.731875 -0.60875 14.46375 -1.4375 14.1875 C-7.625 12.125 -13.8125 10.0625 -20 8 C-20 7.34 -20 6.68 -20 6 C-17.91796875 4.52734375 -17.91796875 4.52734375 -15.1875 2.9375 C-14.29417969 2.41027344 -13.40085937 1.88304688 -12.48046875 1.33984375 C-8.07822946 -1.03805873 -4.73919303 -1.51963255 0 0 Z " fill="#F7F7F7" transform="translate(134,84)"/>
<path d="M0 0 C2.97456535 1.4925505 5.90505966 3.03417716 8.80859375 4.66015625 C8.47859375 5.65015625 8.14859375 6.64015625 7.80859375 7.66015625 C7.17953125 7.758125 6.55046875 7.85609375 5.90234375 7.95703125 C-0.13378714 9.01153604 -4.8358147 10.68482761 -10.19140625 13.66015625 C-10.19140625 14.32015625 -10.19140625 14.98015625 -10.19140625 15.66015625 C-4.24781785 18.96214981 1.09979213 20.61534288 7.80859375 21.66015625 C7.80859375 22.98015625 7.80859375 24.30015625 7.80859375 25.66015625 C2.21257445 28.99395498 -2.97052368 31.69495972 -9.61328125 31.33984375 C-17.84098864 29.17072089 -24.5892128 21.77859279 -30.19140625 15.66015625 C-27.00294703 8.5522252 -20.56798111 3.82945519 -14.19140625 -0.33984375 C-8.89629719 -2.1048801 -5.11232999 -2.14630255 0 0 Z " fill="#F9F9F9" transform="translate(77.19140625,85.33984375)"/>
<path d="M0 0 C0.99 0.33 1.98 0.66 3 1 C3.14695312 1.92619141 3.14695312 1.92619141 3.296875 2.87109375 C4.3694433 8.94589868 5.86870322 14.63031529 9 20 C9.66 20.33 10.32 20.66 11 21 C11.67561748 19.3369416 12.33933281 17.66905395 13 16 C13.25265625 15.38382813 13.5053125 14.76765625 13.765625 14.1328125 C15.51587292 9.72287411 16.50824799 5.72081926 17 1 C17.99 0.67 18.98 0.34 20 0 C27.27983294 11.78639618 27.27983294 11.78639618 26 19 C23.21254571 26.27392834 17.87830879 32.96295186 12 38 C8 38 8 38 5.81640625 36.34765625 C-0.06164799 30.38810386 -5.97292328 24.35526341 -6.6875 15.625 C-6.38466133 9.72486736 -3.06835117 4.88561868 0 0 Z " fill="#F8F8F8" transform="translate(90,114)"/>
<path d="M0 0 C7.42991982 3.3580642 13.57969226 10.69134241 17 18 C18.78251278 25.38127775 16.07398791 30.65875169 12.3125 36.9453125 C11.6628125 37.96238281 11.6628125 37.96238281 11 39 C9.515 38.505 9.515 38.505 8 38 C7.90203125 37.38253906 7.8040625 36.76507813 7.703125 36.12890625 C6.60941374 29.93435198 4.79970361 24.62658881 2 19 C1.34 19 0.68 19 0 19 C-4.16120623 28.18331099 -4.16120623 28.18331099 -6 38 C-7.485 38.495 -7.485 38.495 -9 39 C-16.13134815 27.645026 -16.13134815 27.645026 -15.64453125 21.31640625 C-13.23338035 12.65087603 -6.49065536 5.88373694 0 0 Z " fill="#F8F8F8" transform="translate(99,47)"/>
<path d="M0 0 C4.01198051 0.60357229 5.84755842 3.314467 8.3359375 6.2734375 C9.06393555 7.10681641 9.06393555 7.10681641 9.80664062 7.95703125 C11.09439116 9.43128359 12.37199024 10.9143877 13.6484375 12.3984375 C14.3084375 13.0584375 14.9684375 13.7184375 15.6484375 14.3984375 C19.11548477 14.29390341 20.45767578 13.57265197 23.03515625 11.21875 C23.79441406 10.32929688 24.55367187 9.43984375 25.3359375 8.5234375 C26.48642578 7.19699219 26.48642578 7.19699219 27.66015625 5.84375 C29.73617578 3.36924116 29.73617578 3.36924116 31.6484375 0.3984375 C33.08680501 0.51302443 34.52414716 0.64052866 35.9609375 0.7734375 C37.16169922 0.87785156 37.16169922 0.87785156 38.38671875 0.984375 C40.6484375 1.3984375 40.6484375 1.3984375 43.6484375 3.3984375 C35.3984375 11.6484375 27.1484375 19.8984375 18.6484375 28.3984375 C14.75105174 26.44974462 12.23302457 24.2738781 9.2265625 21.2421875 C8.72171326 20.73925171 8.21686401 20.23631592 7.69671631 19.71813965 C6.63535753 18.65813764 5.57650331 17.59562262 4.52001953 16.53076172 C2.89704626 14.89703704 1.26362682 13.27430456 -0.37109375 11.65234375 C-1.40168396 10.62043274 -2.43165402 9.58790191 -3.4609375 8.5546875 C-3.95148621 8.06818726 -4.44203491 7.58168701 -4.94744873 7.08044434 C-8.3515625 3.62838099 -8.3515625 3.62838099 -8.3515625 1.3984375 C-5.57447989 0.88177097 -2.78470978 0.4718279 0 0 Z " fill="#F9F9F9" transform="translate(82.3515625,139.6015625)"/>
<path d="M0 0 C0.33 0.66 0.66 1.32 1 2 C1.66 2.33 2.32 2.66 3 3 C2.3503125 4.051875 2.3503125 4.051875 1.6875 5.125 C-2.96419324 13.050107 -4.2628032 17.94878718 -2 27 C-4.88265149 27.96088383 -6.67662271 28.11670941 -9.66796875 28.09765625 C-10.56064453 28.09443359 -11.45332031 28.09121094 -12.37304688 28.08789062 C-13.76620117 28.07532227 -13.76620117 28.07532227 -15.1875 28.0625 C-16.12787109 28.05798828 -17.06824219 28.05347656 -18.03710938 28.04882812 C-20.35813712 28.03704626 -22.67903644 28.02059558 -25 28 C-25.95389778 24.4708161 -26.16613303 21.29157268 -26.1875 17.625 C-26.20167969 16.52414063 -26.21585938 15.42328125 -26.23046875 14.2890625 C-25.99195913 10.88524724 -25.21372666 8.17583814 -24 5 C-23.505 5.165 -23.01 5.33 -22.5 5.5 C-13.38364481 7.32327104 -7.9401294 4.44647246 0 0 Z " fill="#F4F4F4" transform="translate(86,111)"/>
<path d="M0 0 C3.89559588 1.58423189 6.52114408 4.24747257 9.421875 7.19140625 C9.92672424 7.69671371 10.43157349 8.20202118 10.95172119 8.72264099 C12.01299872 9.78692989 13.07185455 10.85363849 14.12841797 11.92260742 C15.75303325 13.5655675 17.38559778 15.20029617 19.01953125 16.83398438 C20.04995399 17.86931932 21.07991835 18.9051107 22.109375 19.94140625 C22.59992371 20.43306778 23.09047241 20.92472931 23.59588623 21.43128967 C27 24.8839275 27 24.8839275 27 26 C22.73383684 27.13764351 19.43513689 28 15 28 C13.54296875 26.49609375 13.54296875 26.49609375 12.1875 24.4375 C9.19571131 20.14493362 5.79159555 16.58967626 2 13 C-5.02770098 16.07461918 -10.12875806 22.54793009 -14 29 C-17.63 28.01 -21.26 27.02 -25 26 C-20.03805145 20.00499003 -14.6523376 14.53572963 -9.125 9.0625 C-8.24585937 8.18787109 -7.36671875 7.31324219 -6.4609375 6.41210938 C-4.3095654 4.27242952 -2.15588208 2.13513403 0 0 Z " fill="#F9F9F9" transform="translate(99,32)"/>
<path d="M0 0 C5.99500997 4.96194855 11.46427037 10.3476624 16.9375 15.875 C17.81212891 16.75414063 18.68675781 17.63328125 19.58789062 18.5390625 C21.72757048 20.6904346 23.86486597 22.84411792 26 25 C24.41636918 28.83605489 21.97385878 31.28445649 19.0625 34.203125 C18.58176025 34.6857782 18.10102051 35.1684314 17.60571289 35.66571045 C16.59278907 36.67999064 15.57735362 37.69176804 14.55957031 38.70117188 C12.99826835 40.25171972 11.44797503 41.81270503 9.8984375 43.375 C8.91209939 44.36001734 7.9251415 45.34441453 6.9375 46.328125 C6.03902344 47.2243457 5.14054688 48.12056641 4.21484375 49.04394531 C2 51 2 51 0 51 C-1.19287411 47.12315913 -2 44.08378077 -2 40 C-0.49609375 38.54296875 -0.49609375 38.54296875 1.5625 37.1875 C5.85506638 34.19571131 9.41032374 30.79159555 13 27 C9.98711066 20.26530618 4.17473811 15.76508421 -2 12 C-1.34 8.04 -0.68 4.08 0 0 Z " fill="#F7F7F7" transform="translate(142,74)"/>
<path d="M0 0 C1.60687052 3.77614573 2.440933 6.88969352 2 11 C-1.47761698 15.39307313 -5.5870283 18.58499445 -10 22 C-11.02187839 22.97763211 -12.03639157 23.96488706 -13 25 C-11.49049406 28.57087427 -9.39393774 30.81385442 -6.625 33.5 C-5.85414062 34.2528125 -5.08328125 35.005625 -4.2890625 35.78125 C-2.043213 38.01239269 -2.043213 38.01239269 0.3359375 39.953125 C2 42 2 42 1.953125 44.578125 C1.72109375 45.45984375 1.4890625 46.3415625 1.25 47.25 C0.91742188 48.58804688 0.91742188 48.58804688 0.578125 49.953125 C0.29195312 50.96632813 0.29195312 50.96632813 0 52 C-5.99500997 47.03805145 -11.46427037 41.6523376 -16.9375 36.125 C-17.81212891 35.24585938 -18.68675781 34.36671875 -19.58789062 33.4609375 C-21.72757048 31.3095654 -23.86486597 29.15588208 -26 27 C-24.41576811 23.10440412 -21.75252743 20.47885592 -18.80859375 17.578125 C-18.30328629 17.07327576 -17.79797882 16.56842651 -17.27735901 16.04827881 C-16.21307011 14.98700128 -15.14636151 13.92814545 -14.07739258 12.87158203 C-12.4344325 11.24696675 -10.79970383 9.61440222 -9.16601562 7.98046875 C-8.13068068 6.95004601 -7.0948893 5.92008165 -6.05859375 4.890625 C-5.56693222 4.40007629 -5.07527069 3.90952759 -4.56871033 3.40411377 C-1.1160725 0 -1.1160725 0 0 0 Z " fill="#FAFAFA" transform="translate(58,74)"/>
<path d="M0 0 C1.76483087 7.82173044 1.69049743 15.43297597 -1 23 C-1.86044922 22.76410156 -1.86044922 22.76410156 -2.73828125 22.5234375 C-8.82517914 21.11472538 -13.48310728 21.38663585 -18.9375 24.5625 C-19.66839844 25.03816406 -20.39929688 25.51382813 -21.15234375 26.00390625 C-21.76207031 26.33261719 -22.37179688 26.66132812 -23 27 C-23.66 26.67 -24.32 26.34 -25 26 C-24.21753906 25.22914062 -23.43507813 24.45828125 -22.62890625 23.6640625 C-21.60663943 22.65117427 -20.58451119 21.63814616 -19.5625 20.625 C-19.04623047 20.11710937 -18.52996094 19.60921875 -17.99804688 19.0859375 C-15.142867 16.31431064 -15.142867 16.31431064 -13 13 C-17.81123996 17.03523352 -22.13242719 21.04467233 -26 26 C-26.66 25.67 -27.32 25.34 -28 25 C-27.566875 24.2265625 -27.13375 23.453125 -26.6875 22.65625 C-22.7710799 15.3310939 -20.85147971 10.74260146 -22.5 2.5 C-22.665 2.005 -22.83 1.51 -23 1 C-15.35752481 -1.65825224 -7.91651895 -1.66663557 0 0 Z " fill="#F3F3F3" transform="translate(139,61)"/>
<path d="M0 0 C0.7734375 0.433125 1.546875 0.86625 2.34375 1.3125 C10.60955084 5.73183906 15.76530361 7.3086741 25 5 C26.2263757 7.45275141 26.11415314 9.0505781 26.09765625 11.7890625 C26.09443359 12.73007813 26.09121094 13.67109375 26.08789062 14.640625 C26.07951172 15.62546875 26.07113281 16.6103125 26.0625 17.625 C26.05798828 18.61757812 26.05347656 19.61015625 26.04882812 20.6328125 C26.03702145 23.0886016 26.020554 25.54427104 26 28 C17.95287473 29.675962 10.8710941 29.33217603 3 27 C3.23589844 26.12214844 3.23589844 26.12214844 3.4765625 25.2265625 C5.18758523 17.94833147 3.68175721 13.54799817 0.09375 7.19921875 C-1 5 -1 5 -1 2 C2.96 5.96 6.92 9.92 11 14 C9.27980088 10.55960175 8.1478047 8.89859739 5.5 6.3125 C4.8915625 5.71050781 4.283125 5.10851562 3.65625 4.48828125 C2.0547309 2.91687598 2.0547309 2.91687598 0 2 C0 1.34 0 0.68 0 0 Z " fill="#F6F6F6" transform="translate(113,111)"/>
<path d="M0 0 C3.0833134 -0.02911321 6.16659125 -0.04683682 9.25 -0.0625 C10.12269531 -0.07087891 10.99539062 -0.07925781 11.89453125 -0.08789062 C12.73886719 -0.09111328 13.58320312 -0.09433594 14.453125 -0.09765625 C15.22817383 -0.10289307 16.00322266 -0.10812988 16.80175781 -0.11352539 C18.99283598 -0.00036998 20.89637861 0.39447552 23 1 C22.835 1.495 22.67 1.99 22.5 2.5 C20.98972859 10.05135707 22.23865882 14.30670351 26.00390625 20.8984375 C26.33261719 21.59195313 26.66132812 22.28546875 27 23 C26.67 23.66 26.34 24.32 26 25 C25.22914062 24.21753906 24.45828125 23.43507813 23.6640625 22.62890625 C22.65117427 21.60663943 21.63814616 20.58451119 20.625 19.5625 C20.11710937 19.04623047 19.60921875 18.52996094 19.0859375 17.99804688 C16.31431064 15.142867 16.31431064 15.142867 13 13 C13.44730469 13.50789063 13.89460938 14.01578125 14.35546875 14.5390625 C17.96286942 18.64642275 21.52114925 22.78321121 25 27 C22.2154294 25.90304795 19.58664286 24.78066764 16.9375 23.375 C11.89248809 21.14398362 6.3965775 21.76074287 1 22 C-2.02044322 15.20400276 -1.90810954 7.11282328 0 0 Z " fill="#F8F8F8" transform="translate(61,61)"/>
<path d="M0 0 C15.51 0 31.02 0 47 0 C47 0.33 47 0.66 47 1 C31.82 1 16.64 1 1 1 C2.23233585 2.4612027 2.23233585 2.4612027 5.96899414 2.11352539 C7.74105607 2.1133662 9.5131226 2.10766785 11.28515625 2.09765625 C12.21597519 2.0962413 13.14679413 2.09482635 14.1058197 2.09336853 C17.09141191 2.08775172 20.07693029 2.0751964 23.0625 2.0625 C25.08137913 2.05748716 27.10025943 2.05292388 29.11914062 2.04882812 C34.07945572 2.03777683 39.03971532 2.02050095 44 2 C44 2.33 44 2.66 44 3 C30.47 3 16.94 3 3 3 C3.495 22.8 3.495 22.8 4 43 C12.91 34.09 12.91 34.09 22 25 C22.495 26.485 22.495 26.485 23 28 C9.14 41.86 -4.72 55.72 -19 70 C-12.4 70.33 -5.8 70.66 1 71 C1 71.33 1 71.66 1 72 C-6.26 72 -13.52 72 -21 72 C-21.33 71.01 -21.66 70.02 -22 69 C-21.36908447 68.61521484 -20.73816895 68.23042969 -20.08813477 67.83398438 C-11.65359763 62.28824314 -2.78741849 55.54742275 -0.35461426 45.27484131 C1.89172285 30.3101909 0.53773225 15.01513887 0 0 Z " fill="#464646" transform="translate(28,28)"/>
<path d="M0 0 C0.99 0.33 1.98 0.66 3 1 C2.07678955 1.65637451 1.1535791 2.31274902 0.20239258 2.98901367 C-5.60773447 7.59429075 -10.05445728 11.8968678 -11.16650391 19.47900391 C-11.65724763 25.76027956 -11.49721548 32.02130811 -11.3125 38.3125 C-11.29547955 40.51754021 -11.28436307 42.72263429 -11.27929688 44.92773438 C-11.25427409 50.28767607 -11.15634048 55.64236358 -11 61 C-11.33 61 -11.66 61 -12 61 C-12.33 46.48 -12.66 31.96 -13 17 C-12.96039433 30.77724113 -12.96039433 30.77724113 -12.90991211 44.55444336 C-12.90699302 46.2745762 -12.90444445 47.99470972 -12.90234375 49.71484375 C-12.89722778 50.61658325 -12.89211182 51.51832275 -12.88684082 52.4473877 C-12.88653118 54.63191745 -12.9375413 56.8163633 -13 59 C-14 60 -14 60 -17.96899414 60.11352539 C-19.74105607 60.1133662 -21.5131226 60.10766785 -23.28515625 60.09765625 C-24.21597519 60.0962413 -25.14679413 60.09482635 -26.1058197 60.09336853 C-29.09141191 60.08775172 -32.07693029 60.0751964 -35.0625 60.0625 C-37.08137913 60.05748716 -39.10025943 60.05292388 -41.11914062 60.04882812 C-46.07945572 60.03777683 -51.03971532 60.02050095 -56 60 C-56.495 58.515 -56.495 58.515 -57 57 C-38.19 38.19 -19.38 19.38 0 0 Z M-18.78540039 21.65600586 C-19.58615494 22.45360825 -20.38690948 23.25121063 -21.21192932 24.07298279 C-22.08171921 24.94479691 -22.95150909 25.81661102 -23.84765625 26.71484375 C-24.7340831 27.60031387 -25.62050995 28.485784 -26.53379822 29.39808655 C-28.41220337 31.27580947 -30.28955518 33.15452123 -32.1652832 35.03491211 C-34.57533937 37.45066557 -36.98985587 39.86190308 -39.40575504 42.27181149 C-41.70131467 44.56289838 -43.9930709 46.85778186 -46.28515625 49.15234375 C-47.15697037 50.02213364 -48.02878448 50.89192352 -48.92701721 51.78807068 C-49.7246196 52.58882523 -50.52222198 53.38957977 -51.34399414 54.21459961 C-52.05157364 54.9229747 -52.75915314 55.63134979 -53.48817444 56.3611908 C-55.11300949 57.75089424 -55.11300949 57.75089424 -55 59 C-41.47 59 -27.94 59 -14 59 C-14 45.47 -14 31.94 -14 18 C-15.97149604 18 -17.49528153 20.36733597 -18.78540039 21.65600586 Z " fill="#393939" transform="translate(183,110)"/>
<path d="M0 0 C0.33 0 0.66 0 1 0 C1 6.27 1 12.54 1 19 C0.34 18.67 -0.32 18.34 -1 18 C-1.495 16.02 -1.495 16.02 -2 14 C-9.92 21.92 -17.84 29.84 -26 38 C-23.99989392 42.00021216 -22.14151829 44.08999341 -18.9921875 47.203125 C-18.50670441 47.6857782 -18.02122131 48.1684314 -17.52102661 48.66571045 C-15.97700134 50.19858562 -14.42615176 51.72434004 -12.875 53.25 C-11.82375991 54.29120361 -10.77297343 55.33286541 -9.72265625 56.375 C-7.15366996 58.92199464 -4.57851839 61.46265177 -2 64 C-2.99 64.33 -3.98 64.66 -5 65 C-5.61705811 64.27296875 -6.23411621 63.5459375 -6.86987305 62.796875 C-18.81674175 47.64656117 -18.81674175 47.64656117 -35.26953125 39.40625 C-40.45873215 39.12415155 -44.6784555 40.11307592 -50 41 C-43.07 47.93 -36.14 54.86 -29 62 C-29.66 62.66 -30.32 63.32 -31 64 C-38.92 56.08 -46.84 48.16 -55 40 C-54.67 39.01 -54.34 38.02 -54 37 C-53.34 37 -52.68 37 -52 37 C-52 37.66 -52 38.32 -52 39 C-43.94282859 40.61143428 -35.38382866 41.47280338 -28.14550781 36.80377197 C-23.28980904 33.13505985 -18.99877432 28.9058565 -14.75 24.5625 C-14.12782593 23.9372644 -13.50565186 23.31202881 -12.86462402 22.66784668 C-3.12691307 12.98131209 -3.12691307 12.98131209 0 0 Z " fill="#1B1B1B" transform="translate(59,61)"/>
<path d="M0 0 C3 1 3 1 4.3515625 3.4765625 C6.6121848 9.06570844 8.33562445 14.02062008 9 20 C9.66 20.33 10.32 20.66 11 21 C11.268125 20.29875 11.53625 19.5975 11.8125 18.875 C13 16 13 16 14.5625 13.125 C16.13483856 9.70687269 16.62734133 6.72658671 17 3 C17.33 3 17.66 3 18 3 C19.32281052 8.1077308 18.66026796 10.64034357 16.1875 15.25 C15.64480469 16.28640625 15.10210937 17.3228125 14.54296875 18.390625 C13 21 13 21 11 23 C8.54901444 22.60467975 6.36095721 21.78698574 4 21 C-1.77525018 20.45516508 -4.39378083 21.57211597 -9 25 C-9.66 25 -10.32 25 -11 25 C-10.67 23.35 -10.34 21.7 -10 20 C-9.01 20 -8.02 20 -7 20 C-6.91363281 19.39414063 -6.82726562 18.78828125 -6.73828125 18.1640625 C-5.60563053 11.40972336 -3.32547318 5.9655435 0 0 Z " fill="#262626" transform="translate(99,65)"/>
<path d="M0 0 C8.91 0 17.82 0 27 0 C27 4 27 4 25.25 6.140625 C24.5075 6.83671875 23.765 7.5328125 23 8.25 C22.2575 8.95640625 21.515 9.6628125 20.75 10.390625 C19.88375 11.18726562 19.88375 11.18726562 19 12 C18.01 11.67 17.02 11.34 16 11 C19.465 7.535 19.465 7.535 23 4 C15.75204587 2.02328524 9.14897877 1.26237865 2 4 C-3.73789919 7.72203031 -8.50883633 12.67868994 -13.25 17.5625 C-13.87821655 18.20231812 -14.50643311 18.84213623 -15.15368652 19.50134277 C-16.96914294 21.37384043 -18.74967199 23.2722301 -20.515625 25.19140625 C-21.05634644 25.76788406 -21.59706787 26.34436188 -22.1541748 26.93830872 C-25.66057312 30.91714332 -26.72853787 33.69173501 -27 39 C-27.33 39 -27.66 39 -28 39 C-28.06058594 38.07058594 -28.12117187 37.14117187 -28.18359375 36.18359375 C-28.79571552 27.05853115 -28.79571552 27.05853115 -30 18 C-30.70125 18.33 -31.4025 18.66 -32.125 19 C-35.26003116 20.09044562 -37.70563182 20.15322643 -41 20 C-41 19.67 -41 19.34 -41 19 C-36 17.33333333 -31 15.66666667 -26 14 C-26 14.66 -26 15.32 -26 16 C-26.66 16 -27.32 16 -28 16 C-27.34 19.63 -26.68 23.26 -26 27 C-20.1256633 21.95913899 -14.5376103 16.72033689 -9.0625 11.25 C-8.29615234 10.49589844 -7.52980469 9.74179688 -6.74023438 8.96484375 C-6.01255859 8.23910156 -5.28488281 7.51335937 -4.53515625 6.765625 C-3.879104 6.11368164 -3.22305176 5.46173828 -2.54711914 4.79003906 C-0.78005962 2.97534172 -0.78005962 2.97534172 0 0 Z " fill="#141414" transform="translate(168,98)"/>
<path d="M0 0 C0.99 0.33 1.98 0.66 3 1 C-12.18 16.18 -27.36 31.36 -43 47 C-43.33 46.01 -43.66 45.02 -44 44 C-43.39937744 43.40461426 -42.79875488 42.80922852 -42.17993164 42.19580078 C-39.95461906 39.98752141 -37.73155962 37.77700557 -35.51000977 35.56494141 C-34.54769305 34.60765619 -33.58448108 33.65127006 -32.62036133 32.69580078 C-31.23544555 31.32300212 -29.85400009 29.94670528 -28.47265625 28.5703125 C-27.64000244 27.74289551 -26.80734863 26.91547852 -25.94946289 26.06298828 C-23.9555946 24.15224807 -23.9555946 24.15224807 -23 22 C-36.86 22 -50.72 22 -65 22 C-65 36.19 -65 50.38 -65 65 C-65.33 65 -65.66 65 -66 65 C-66 50.48 -66 35.96 -66 21 C-55.23375 21.37125 -55.23375 21.37125 -44.25 21.75 C-25.33225957 22.02686486 -25.33225957 22.02686486 -9.61230469 12.77636719 C-6.05733913 8.718933 -2.80349886 4.61370507 0 0 Z " fill="#0E0E0E" transform="translate(95,8)"/>
<path d="M0 0 C0.33 0 0.66 0 1 0 C0.92031982 1.31379639 0.84063965 2.62759277 0.75854492 3.98120117 C-1.99027323 31.81425357 -1.99027323 31.81425357 8.14002991 56.36177063 C12.59596888 60.85677072 17.62519612 64.67738148 23 68 C22.34 68.66 21.68 69.32 21 70 C17.2908542 66.34017795 13.58823822 62.67392152 9.89160156 59.00146484 C8.63232287 57.75226298 7.37125764 56.50485944 6.10839844 55.25927734 C4.29673588 53.47178925 2.49153161 51.67799773 0.6875 49.8828125 C0.11878174 49.32441681 -0.44993652 48.76602112 -1.03588867 48.19070435 C-2.3957465 46.83124115 -3.70341173 45.41993393 -5 44 C-5 43.34 -5 42.68 -5 42 C-4.34 42 -3.68 42 -3 42 C-2.67 28.8 -2.34 15.6 -2 2 C-15.53 2 -29.06 2 -43 2 C-43 1.67 -43 1.34 -43 1 C-41.73293213 1.00523682 -40.46586426 1.01047363 -39.16040039 1.01586914 C-34.4771393 1.03391514 -29.79388129 1.04543053 -25.1105957 1.05493164 C-23.08031702 1.05997278 -21.05004198 1.06680557 -19.01977539 1.07543945 C-16.10822653 1.08751467 -13.1967255 1.09323034 -10.28515625 1.09765625 C-9.3716188 1.10281754 -8.45808136 1.10797882 -7.51686096 1.11329651 C-5.34424573 1.11349168 -3.17172704 1.06211805 -1 1 C-0.67 0.67 -0.34 0.34 0 0 Z " fill="#484848" transform="translate(171,29)"/>
<path d="M0 0 C4.13928892 3.56835252 6.58441906 7.5794492 7.25390625 13.08984375 C7.3593067 16.86317993 7.11670546 19.82494181 5 23 C12.67431256 24.25294899 20.24230761 24.06926511 28 24 C28 18.72 28 13.44 28 8 C28.33 8 28.66 8 29 8 C29.495 11.465 29.495 11.465 30 15 C30.33 15 30.66 15 31 15 C31.125 22.625 31.125 22.625 30 26 C28.91380371 26.01426025 28.91380371 26.01426025 27.80566406 26.02880859 C17.4285138 26.86384751 12.40332155 32.40457321 5.75 39.625 C4.69901195 40.72625128 3.6456399 41.82523251 2.58984375 42.921875 C0.03189047 45.58898227 -2.49247633 48.28532199 -5 51 C-5.99 50.67 -6.98 50.34 -8 50 C-0.74 42.74 6.52 35.48 14 28 C9.71 27.01 5.42 26.02 1 25 C1.495 24.01 1.99 23.02 2.5 22 C4.52575194 17.18278128 5.08650355 12.66687235 3.09765625 7.78515625 C2.39062185 6.39373269 1.65167373 5.01784796 0.875 3.6640625 C0 2 0 2 0 0 Z " fill="#2D2D2D" transform="translate(111,115)"/>
<path d="M0 0 C0.99 0.33 1.98 0.66 3 1 C2.01 1.99 1.02 2.98 0 4 C3.3 4.99 6.6 5.98 10 7 C10.99 6.01 11.98 5.02 13 4 C13.33 4.66 13.66 5.32 14 6 C13.360625 7.010625 12.72125 8.02125 12.0625 9.0625 C9.51168928 13.3792566 9.01774894 17.08075892 10 22 C11.21859174 24.69916087 12.56199547 27.20899256 14.1015625 29.73828125 C15 32 15 32 14.1484375 34.29296875 C13.76945312 34.85628906 13.39046875 35.41960937 13 36 C12.34 36 11.68 36 11 36 C9.44921875 34.42578125 9.44921875 34.42578125 7.6875 32.3125 C5.56355316 29.80197706 3.44498656 27.39176579 1.0625 25.125 C-1 23 -1 23 -1 21 C2.68069887 22.53643852 4.98775204 24.78150945 7.75 27.625 C8.54921875 28.44226563 9.3484375 29.25953125 10.171875 30.1015625 C10.77515625 30.72804688 11.3784375 31.35453125 12 32 C11.6390625 31.29875 11.278125 30.5975 10.90625 29.875 C7.99591347 23.92497866 6.18545584 19.63271673 7 13 C7.66 11.68 8.32 10.36 9 9 C-2.385 8.505 -2.385 8.505 -14 8 C-14.33 9.32 -14.66 10.64 -15 12 C-15.33 10.02 -15.66 8.04 -16 6 C-15.18015625 5.90203125 -14.3603125 5.8040625 -13.515625 5.703125 C-12.43796875 5.55359375 -11.3603125 5.4040625 -10.25 5.25 C-9.18265625 5.11078125 -8.1153125 4.9715625 -7.015625 4.828125 C-3.60025402 3.8902252 -2.24492337 2.68083082 0 0 Z " fill="#2E2E2E" transform="translate(75,53)"/>
<path d="M0 0 C3 2.125 3 2.125 5 5 C5.16299417 8.99335725 4.47797727 10.46739675 1.8125 13.4375 C-1 15 -1 15 -4.0625 15 C-7.48891601 13.83356051 -9.00279949 13.03574477 -11 10 C-10.93913078 6.53045455 -10.6274029 4.08052722 -8.875 1.0625 C-5.76581435 -0.69937187 -3.49155423 -0.48159369 0 0 Z " fill="#F4F4F4" transform="translate(103,93)"/>
<path d="M0 0 C-3.4352048 2.29013653 -4.985331 2.17842973 -9 2 C-3.82639226 8.03188292 1.52721273 13.86101561 7.0625 19.5625 C7.83916016 20.39330078 8.61582031 21.22410156 9.41601562 22.08007812 C10.17720703 22.85931641 10.93839844 23.63855469 11.72265625 24.44140625 C12.40078369 25.14982666 13.07891113 25.85824707 13.77758789 26.58813477 C16.02404943 28.33020583 16.02404943 28.33020583 19.26733398 27.72241211 C20.16911377 27.48401611 21.07089355 27.24562012 22 27 C21.5155542 27.55268555 21.0311084 28.10537109 20.53198242 28.67480469 C18.73142141 31.40764024 18.58258842 32.9589585 18.48828125 36.203125 C18.45283203 37.1828125 18.41738281 38.1625 18.38085938 39.171875 C18.35830078 40.18765625 18.33574219 41.2034375 18.3125 42.25 C18.27833984 43.28125 18.24417969 44.3125 18.20898438 45.375 C18.12661907 47.91655812 18.05743166 50.45777626 18 53 C17.34 53 16.68 53 16 53 C16.37898438 51.10507813 16.37898438 51.10507813 16.765625 49.171875 C17.71967019 41.04901567 17.44596437 33.9407564 12.33349609 27.22607422 C8.93577019 23.14457453 5.23838621 19.39146015 1.4375 15.6875 C0.80372437 15.06105591 0.16994873 14.43461182 -0.48303223 13.78918457 C-2.33868501 11.97848703 -4.22275954 10.20657612 -6.12890625 8.44921875 C-6.98111504 7.6429026 -6.98111504 7.6429026 -7.85054016 6.82029724 C-12.13970379 3.04282086 -15.29910625 2.25454247 -21 2 C-21 1.67 -21 1.34 -21 1 C-18.62515638 0.83079995 -16.25016522 0.66457137 -13.875 0.5 C-13.20984375 0.45230469 -12.5446875 0.40460938 -11.859375 0.35546875 C-7.89764586 0.08358538 -3.97061445 -0.04947806 0 0 Z " fill="#111111" transform="translate(83,139)"/>
<path d="M0 0 C3.46629835 1.48653506 5.69022036 3.45722351 8.328125 6.1328125 C9.12734375 6.93847656 9.9265625 7.74414062 10.75 8.57421875 C11.575 9.41597656 12.4 10.25773438 13.25 11.125 C14.51070312 12.39923828 14.51070312 12.39923828 15.796875 13.69921875 C17.86915683 15.79504923 19.93662393 17.89540713 22 20 C21.34 20.66 20.68 21.32 20 22 C14.39 16.39 8.78 10.78 3 5 C2.96261719 7.86429688 2.92523437 10.72859375 2.88671875 13.6796875 C2.84053878 16.4465306 2.78929237 19.2132365 2.73754883 21.97998047 C2.70424631 23.90632831 2.67623111 25.83277499 2.65356445 27.75927734 C2.62011576 30.5248435 2.56780664 33.28949953 2.51171875 36.0546875 C2.50532883 36.9193161 2.4989389 37.7839447 2.49235535 38.67477417 C2.43237305 41.10107422 2.43237305 41.10107422 2 45 C1.01 45.66 0.02 46.32 -1 47 C-1.02527002 40.46721214 -1.04283292 33.93443679 -1.05493164 27.40161133 C-1.05997317 25.17732268 -1.06680623 22.95303737 -1.07543945 20.72875977 C-1.08751298 17.53921691 -1.09322996 14.34971771 -1.09765625 11.16015625 C-1.10281754 10.15912369 -1.10797882 9.15809113 -1.11329651 8.12672424 C-1.11337204 7.20584518 -1.11344757 6.28496613 -1.11352539 5.33618164 C-1.115746 4.52121719 -1.11796661 3.70625275 -1.12025452 2.86659241 C-1 1 -1 1 0 0 Z " fill="#444444" transform="translate(29,124)"/>
<path d="M0 0 C1.485 0.495 1.485 0.495 3 1 C-7.23 11.23 -17.46 21.46 -28 32 C-8.2 32.495 -8.2 32.495 12 33 C12 33.33 12 33.66 12 34 C-1.86 34 -15.72 34 -30 34 C-30.495 32.515 -30.495 32.515 -31 31 C-20.77 20.77 -10.54 10.54 0 0 Z " fill="#2D2D2D" transform="translate(157,136)"/>
<path d="M0 0 C0.66 0 1.32 0 2 0 C6.59225513 10.37357631 6.59225513 10.37357631 6 16 C2.7 16 -0.6 16 -4 16 C-3.58706708 9.88859272 -3.23325003 5.34189136 0 0 Z " fill="#EFEFEF" transform="translate(99,68)"/>
<path d="M0 0 C0 3.3 0 6.6 0 10 C-6.11140728 9.58706708 -10.65810864 9.23325003 -16 6 C-16 5.34 -16 4.68 -16 4 C-10.30303862 0.9527881 -6.46218315 0 0 0 Z " fill="#F2F2F2" transform="translate(84,95)"/>
<path d="M0 0 C3.04581486 1.36113013 5.13839026 2.89330096 7.48339844 5.25634766 C8.14378113 5.91688141 8.80416382 6.57741516 9.48455811 7.25796509 C10.18574768 7.96947723 10.88693726 8.68098938 11.609375 9.4140625 C12.33618469 10.14370209 13.06299438 10.87334167 13.81182861 11.62509155 C16.12929198 13.9537388 18.4396995 16.28924826 20.75 18.625 C22.32115444 20.20618653 23.89276371 21.78692125 25.46484375 23.3671875 C29.31518653 27.2395669 33.15976117 31.11760171 37 35 C36.34 35.66 35.68 36.32 35 37 C30.00850533 32.05906227 25.02474758 27.11042057 20.04638672 22.15625 C18.35058495 20.47052874 16.65299566 18.78660376 14.95361328 17.10449219 C12.51647436 14.6915115 10.08575933 12.27222179 7.65625 9.8515625 C6.89066772 9.0963028 6.12508545 8.34104309 5.33630371 7.56289673 C4.28521423 6.51203384 4.28521423 6.51203384 3.21289062 5.43994141 C2.59111938 4.82261139 1.96934814 4.20528137 1.32873535 3.56924438 C0 2 0 2 0 0 Z " fill="#0B0B0B" transform="translate(130,35)"/>
<path d="M0 0 C3.3 0 6.6 0 10 0 C9.53478901 6.04774291 8.66426443 10.55563356 6 16 C5.34 16 4.68 16 4 16 C3.32320342 14.274773 2.65898 12.54461061 2 10.8125 C1.443125 9.36810547 1.443125 9.36810547 0.875 7.89453125 C0 5 0 5 0 0 Z " fill="#F8F8F8" transform="translate(95,116)"/>
<path d="M0 0 C6.00333124 -0.6319296 10.63404795 1.62455877 16 4 C16 4.66 16 5.32 16 6 C14.274773 6.67679658 12.54461061 7.34102 10.8125 8 C9.84957031 8.37125 8.88664062 8.7425 7.89453125 9.125 C5 10 5 10 0 10 C0 6.7 0 3.4 0 0 Z " fill="#F2F2F2" transform="translate(116,95)"/>
<path d="M0 0 C0.66 0 1.32 0 2 0 C2 0.66 2 1.32 2 2 C9.92 1.67 17.84 1.34 26 1 C25.67 1.66 25.34 2.32 25 3 C14.605 3.495 14.605 3.495 4 4 C10.93 10.93 17.86 17.86 25 25 C24.34 25.66 23.68 26.32 23 27 C15.08 19.08 7.16 11.16 -1 3 C-0.67 2.01 -0.34 1.02 0 0 Z " fill="#141414" transform="translate(5,98)"/>
<path d="M0 0 C0.33 0 0.66 0 1 0 C1 15.18 1 30.36 1 46 C-14.84 46 -30.68 46 -47 46 C-46.34 45.01 -45.68 44.02 -45 43 C-44.34 43 -43.68 43 -43 43 C-43 43.66 -43 44.32 -43 45 C-22.21 44.505 -22.21 44.505 -1 44 C-1.01160156 40.90753906 -1.02320313 37.81507813 -1.03515625 34.62890625 C-1.04294601 31.64705508 -1.04902323 28.66520503 -1.05493164 25.68334961 C-1.05997288 23.60456844 -1.06680574 21.52579084 -1.07543945 19.44702148 C-1.08751422 16.46597414 -1.09323024 13.48497351 -1.09765625 10.50390625 C-1.10539818 9.10078941 -1.10539818 9.10078941 -1.11329651 7.66932678 C-1.11337204 6.80850998 -1.11344757 5.94769318 -1.11352539 5.06079102 C-1.115746 4.29912125 -1.11796661 3.53745148 -1.12025452 2.75270081 C-1 1 -1 1 0 0 Z " fill="#010101" transform="translate(170,125)"/>
<path d="M0 0 C3.4375 1.5 3.4375 1.5 6 3 C4.25 6.875 4.25 6.875 2 8 C1.34 7.67 0.68 7.34 0 7 C-3.53018797 6.84651357 -6.61527952 6.95854754 -10 8 C-10.99 6.68 -11.98 5.36 -13 4 C-8.50120984 0.48874914 -5.71150996 -0.71393875 0 0 Z " fill="#EDEDED" transform="translate(103,85)"/>
<path d="M0 0 C4.62 0 9.24 0 14 0 C14.66 1.32 15.32 2.64 16 4 C12.06494302 7.04649573 8.90707582 7.44908727 4.09375 7.3046875 C1.40257009 6.91306057 -0.12795617 5.95343704 -2 4 C-1.34 2.68 -0.68 1.36 0 0 Z " fill="#F4F4F4" transform="translate(93,108)"/>
<path d="M0 0 C3 1 3 1 4.1875 2.625 C5.78688011 7.30011109 5.46127713 10.94290657 3.5 15.4375 C3.005 16.283125 2.51 17.12875 2 18 C0.68 17.34 -0.64 16.68 -2 16 C-1.98839844 15.31292969 -1.97679688 14.62585938 -1.96484375 13.91796875 C-1.95582031 13.01691406 -1.94679688 12.11585937 -1.9375 11.1875 C-1.92589844 10.29417969 -1.91429688 9.40085937 -1.90234375 8.48046875 C-1.88990033 5.86586209 -1.88990033 5.86586209 -3 3 C-2.01 2.01 -1.02 1.02 0 0 Z " fill="#F3F3F3" transform="translate(110,91)"/>
<path d="M0 0 C1.32 0.66 2.64 1.32 4 2 C4 6.66666667 4 11.33333333 4 16 C2.02 16.99 2.02 16.99 0 18 C-2.79385411 14.27486119 -3.45908751 11.46656688 -3.3046875 6.9375 C-2.86858343 4.16432542 -1.66616677 2.22155569 0 0 Z " fill="#F4F4F4" transform="translate(88,91)"/>
<path d="M0 0 C2.29668368 0.07035296 4.59357604 0.13420882 6.890625 0.19140625 C12.47336434 0.34441226 18.04819014 0.57750718 23.625 0.875 C23.625 1.205 23.625 1.535 23.625 1.875 C22.78840347 1.84715927 22.78840347 1.84715927 21.93490601 1.8187561 C16.06050769 1.63748299 10.19057247 1.55764011 4.31347656 1.53320312 C2.12915695 1.51131486 -0.05507479 1.46468236 -2.23828125 1.39160156 C-17.36514255 0.738655 -17.36514255 0.738655 -30.04647827 7.97982788 C-32.70182317 10.82034901 -35.07812031 13.73604974 -37.375 16.875 C-38.035 16.215 -38.695 15.555 -39.375 14.875 C-28.37367986 -0.49219838 -18.05175843 -0.96640727 0 0 Z " fill="#424242" transform="translate(147.375,170.125)"/>
<path d="M0 0 C4.05730536 0.54599469 6.12704635 2.63878528 9.0625 5.375 C10.34833984 6.56222656 10.34833984 6.56222656 11.66015625 7.7734375 C13.4667108 9.49252948 15.25123959 11.22257138 17 13 C15.47475964 16.60286506 13.32514563 18.94299983 10.5625 21.6875 C9.78003906 22.47511719 8.99757812 23.26273438 8.19140625 24.07421875 C6 26 6 26 3 27 C3 26.01 3 25.02 3 24 C4.4665982 22.72894823 5.93840356 21.46231546 7.45703125 20.25390625 C9.43752233 18.64444388 10.85119808 17.29760383 12 15 C11.25836464 9.51189831 6.12724116 6.1986119 2 3 C1.34 2.67 0.68 2.34 0 2 C0 1.34 0 0.68 0 0 Z " fill="#292929" transform="translate(139,86)"/>
<path d="M0 0 C8.91 0 17.82 0 27 0 C27 4 27 4 25.25 6.140625 C24.5075 6.83671875 23.765 7.5328125 23 8.25 C22.2575 8.95640625 21.515 9.6628125 20.75 10.390625 C19.88375 11.18726562 19.88375 11.18726562 19 12 C18.01 11.67 17.02 11.34 16 11 C18.31 8.69 20.62 6.38 23 4 C15.74 3.67 8.48 3.34 1 3 C0.67 2.01 0.34 1.02 0 0 Z " fill="#0C0C0C" transform="translate(168,98)"/>
<path d="M0 0 C3.54963854 1.51548495 5.89958735 3.60075999 8.625 6.3125 C9.78902344 7.45138672 9.78902344 7.45138672 10.9765625 8.61328125 C13 11 13 11 14.0859375 13.73046875 C14.38757813 14.47941406 14.68921875 15.22835937 15 16 C15.99 16.33 16.98 16.66 18 17 C16.68 17.33 15.36 17.66 14 18 C13.32904297 17.11248047 13.32904297 17.11248047 12.64453125 16.20703125 C9.31190989 11.85117433 5.99878515 7.75643454 2 4 C-1.44758183 5.44282059 -3.28029268 7.24317911 -5.625 10.125 C-6.70709803 11.45281461 -7.82405239 12.75453824 -9 14 C-9.66 14 -10.32 14 -11 14 C-10.52590352 9.68269587 -7.96603297 7.66352539 -4.9375 4.75 C-4.01839844 3.85796875 -3.09929687 2.9659375 -2.15234375 2.046875 C-1.44207031 1.37140625 -0.73179688 0.6959375 0 0 Z " fill="#1F1F1F" transform="translate(99,44)"/>
<path d="M0 0 C3.40414403 1.13471468 4.24276648 2.17225987 6.5 4.875 C8.58578225 7.35415347 10.67301287 9.7439576 13 12 C16.88397689 10.44997253 19.02979619 7.99523379 21.75 4.875 C22.54921875 3.96492187 23.3484375 3.05484375 24.171875 2.1171875 C24.77515625 1.41851562 25.3784375 0.71984375 26 0 C26.66 0.33 27.32 0.66 28 1 C19.51251422 12.22696246 19.51251422 12.22696246 16 15 C11.20918875 14.83062788 9.00016854 12.51065137 5.75 9.1875 C4.87859375 8.31480469 4.0071875 7.44210938 3.109375 6.54296875 C1.15847732 4.19105322 0.36055685 2.974594 0 0 Z " fill="#1E1E1E" transform="translate(86,140)"/>
<path d="M0 0 C-0.73605469 0.59167969 -1.47210938 1.18335937 -2.23046875 1.79296875 C-3.20628906 2.58316406 -4.18210937 3.37335938 -5.1875 4.1875 C-6.15042969 4.96480469 -7.11335938 5.74210937 -8.10546875 6.54296875 C-10.90350421 8.91808927 -13.4455467 11.37082777 -16 14 C-14.33248852 17.94139078 -11.77289351 20.7892812 -9 24 C-12 24 -12 24 -14.04296875 22.25 C-14.75066406 21.5075 -15.45835938 20.765 -16.1875 20 C-16.90292969 19.2575 -17.61835937 18.515 -18.35546875 17.75 C-19.16951172 16.88375 -19.16951172 16.88375 -20 16 C-18.43238691 12.22546791 -16.06806222 9.80078748 -13.1875 6.9375 C-12.33542969 6.08027344 -11.48335937 5.22304687 -10.60546875 4.33984375 C-4.21022727 -1.40340909 -4.21022727 -1.40340909 0 0 Z " fill="#161616" transform="translate(64,85)"/>
<path d="M0 0 C0.99 0.33 1.98 0.66 3 1 C2.01 1.99 1.02 2.98 0 4 C3.465 5.485 3.465 5.485 7 7 C7 7.33 7 7.66 7 8 C0.07 8 -6.86 8 -14 8 C-14.33 9.32 -14.66 10.64 -15 12 C-15.33 10.02 -15.66 8.04 -16 6 C-15.18015625 5.90203125 -14.3603125 5.8040625 -13.515625 5.703125 C-12.43796875 5.55359375 -11.3603125 5.4040625 -10.25 5.25 C-9.18265625 5.11078125 -8.1153125 4.9715625 -7.015625 4.828125 C-3.60025402 3.8902252 -2.24492337 2.68083082 0 0 Z " fill="#1F1F1F" transform="translate(75,53)"/>
<path d="M0 0 C3 1 3 1 4.421875 3.51171875 C4.86015625 4.55972656 5.2984375 5.60773438 5.75 6.6875 C6.19859375 7.72261719 6.6471875 8.75773437 7.109375 9.82421875 C8.09239019 13.32944397 7.86085392 15.49884412 7 19 C6.67 19 6.34 19 6 19 C4.66666667 13.66666667 3.33333333 8.33333333 2 3 C1.34 3 0.68 3 0 3 C-1.32 8.28 -2.64 13.56 -4 19 C-4.66 18.34 -5.32 17.68 -6 17 C-5.86558424 10.54804357 -3.04277302 5.58028852 0 0 Z " fill="#363636" transform="translate(99,65)"/>
<path d="M0 0 C0.99 0.66 1.98 1.32 3 2 C2.37738281 2.51433594 2.37738281 2.51433594 1.7421875 3.0390625 C-5.58544257 9.26294913 -12.250335 16.1650162 -19 23 C-19.99 22.67 -20.98 22.34 -22 22 C-14.74 14.74 -7.48 7.48 0 0 Z " fill="#1F1F1F" transform="translate(98,30)"/>
<path d="M0 0 C4.6875 3.61328125 4.6875 3.61328125 6 5 C6 5.99 6 6.98 6 8 C6.86044922 8.37318359 6.86044922 8.37318359 7.73828125 8.75390625 C10.33015465 10.18189867 12.10510677 11.83947906 14.1875 13.9375 C14.88230469 14.62714844 15.57710937 15.31679687 16.29296875 16.02734375 C18 18 18 18 19 21 C15.09714233 19.41332422 12.66479018 16.86649519 9.75 13.875 C8.85796875 12.96492188 7.9659375 12.05484375 7.046875 11.1171875 C6.37140625 10.41851562 5.6959375 9.71984375 5 9 C4.34 9.66 3.68 10.32 3 11 C2.54625 9.88625 2.0925 8.7725 1.625 7.625 C0.27534014 4.03800992 0.27534014 4.03800992 -2 2 C-1.34 2 -0.68 2 0 2 C0 1.34 0 0.68 0 0 Z " fill="#444444" transform="translate(107,105)"/>
<path d="M0 0 C0 0.66 0 1.32 0 2 C-0.66 2 -1.32 2 -2 2 C-1.83628906 2.56203125 -1.67257813 3.1240625 -1.50390625 3.703125 C-0.97135003 6.13059056 -0.90101319 8.26889681 -0.9375 10.75 C-0.94652344 11.54921875 -0.95554688 12.3484375 -0.96484375 13.171875 C-0.97644531 13.77515625 -0.98804688 14.3784375 -1 15 C-0.34 15 0.32 15 1 15 C0.34 18.3 -0.32 21.6 -1 25 C-1.33 25 -1.66 25 -2 25 C-2.06058594 24.07058594 -2.12117187 23.14117187 -2.18359375 22.18359375 C-2.79571552 13.05853115 -2.79571552 13.05853115 -4 4 C-4.70125 4.33 -5.4025 4.66 -6.125 5 C-9.26003116 6.09044562 -11.70563182 6.15322643 -15 6 C-15 5.67 -15 5.34 -15 5 C-14.39671875 4.80664062 -13.7934375 4.61328125 -13.171875 4.4140625 C-12.37265625 4.15367188 -11.5734375 3.89328125 -10.75 3.625 C-9.96109375 3.36976562 -9.1721875 3.11453125 -8.359375 2.8515625 C-5.99107236 2.05131248 -5.99107236 2.05131248 -3.828125 0.8984375 C-2 0 -2 0 0 0 Z " fill="#1C1C1C" transform="translate(142,112)"/>
<path d="M0 0 C-1.5278414 3.67689304 -3.75627506 5.90198808 -6.625 8.625 C-8.12058838 10.04510127 -9.58886398 11.49594968 -11 13 C-11 13.66 -11 14.32 -11 15 C-13.31 16.32 -15.62 17.64 -18 19 C-18 16 -18 16 -16 13 C-15.01 13 -14.02 13 -13 13 C-12.7628125 12.43796875 -12.525625 11.8759375 -12.28125 11.296875 C-10.71052303 8.48105958 -8.78528536 6.52044584 -6.5 4.25 C-5.7059375 3.45078125 -4.911875 2.6515625 -4.09375 1.828125 C-2 0 -2 0 0 0 Z " fill="#424242" transform="translate(126,74)"/>
<path d="M0 0 C0.33 0 0.66 0 1 0 C1 6.27 1 12.54 1 19 C0.34 18.67 -0.32 18.34 -1 18 C-1.33 16.68 -1.66 15.36 -2 14 C-4.31 16.31 -6.62 18.62 -9 21 C-9.66 20.34 -10.32 19.68 -11 19 C-10.37351563 18.46632813 -9.74703125 17.93265625 -9.1015625 17.3828125 C-3.18918617 11.992665 -0.52093754 8.0493252 0 0 Z " fill="#111111" transform="translate(59,61)"/>
<path d="M0 0 C0.66 0.66 1.32 1.32 2 2 C1.45859375 2.81791016 1.45859375 2.81791016 0.90625 3.65234375 C-2.53479756 9.24404603 -3.9692569 13.44831409 -3 20 C-2.11539972 23.41471924 -2.11539972 23.41471924 -1 26 C-1.66 26.33 -2.32 26.66 -3 27 C-4.32 26.01 -5.64 25.02 -7 24 C-6.01 24 -5.02 24 -4 24 C-4.33 23.34 -4.66 22.68 -5 22 C-6.75400575 16.73798275 -6.93419378 13.05848514 -4.65625 8.0390625 C-3.17031705 5.31251572 -1.63157373 2.64159556 0 0 Z " fill="#353535" transform="translate(88,114)"/>
<path d="M0 0 C0.66 0 1.32 0 2 0 C2.00386719 1.82724609 2.00386719 1.82724609 2.0078125 3.69140625 C1.76293617 13.85626914 1.76293617 13.85626914 6.0625 22.625 C7.031875 23.40875 8.00125 24.1925 9 25 C6 25 6 25 3.8125 23.125 C2 21 2 21 2 19 C1.34 19 0.68 19 0 19 C0 12.73 0 6.46 0 0 Z " fill="#101010" transform="translate(99,12)"/>
<path d="M0 0 C3.15204981 1.39347376 5.26171773 3.02485079 7.671875 5.4765625 C8.33574219 6.146875 8.99960937 6.8171875 9.68359375 7.5078125 C10.36550781 8.20648438 11.04742187 8.90515625 11.75 9.625 C12.44738281 10.33140625 13.14476562 11.0378125 13.86328125 11.765625 C15.58012488 13.50598703 17.29211832 15.25084981 19 17 C18.34 17.66 17.68 18.32 17 19 C14.15862758 16.21641519 11.32831845 13.42184273 8.5 10.625 C7.68917969 9.8309375 6.87835938 9.036875 6.04296875 8.21875 C4.89248047 7.07792969 4.89248047 7.07792969 3.71875 5.9140625 C3.00654297 5.2123291 2.29433594 4.5105957 1.56054688 3.78759766 C0 2 0 2 0 0 Z " fill="#0F0F0F" transform="translate(50,145)"/>
<path d="M0 0 C-3.4352048 2.29013653 -4.985331 2.17842973 -9 2 C-5.535 5.96 -5.535 5.96 -2 10 C-2.99 10.33 -3.98 10.66 -5 11 C-5.4846875 10.43410156 -5.969375 9.86820313 -6.46875 9.28515625 C-11.09303535 4.08220504 -11.09303535 4.08220504 -17.5 2 C-18.655 2 -19.81 2 -21 2 C-21 1.67 -21 1.34 -21 1 C-18.62515638 0.83079995 -16.25016522 0.66457137 -13.875 0.5 C-13.20984375 0.45230469 -12.5446875 0.40460938 -11.859375 0.35546875 C-7.89764586 0.08358538 -3.97061445 -0.04947806 0 0 Z " fill="#121212" transform="translate(83,139)"/>
<path d="M0 0 C3.54822446 0.57881268 5.18422803 1.82692359 7.671875 4.37890625 C8.33574219 5.05244141 8.99960938 5.72597656 9.68359375 6.41992188 C10.36550781 7.12697266 11.04742187 7.83402344 11.75 8.5625 C12.44738281 9.27341797 13.14476563 9.98433594 13.86328125 10.71679688 C15.5824658 12.47130714 17.29425872 14.23243352 19 16 C18.01 16.33 17.02 16.66 16 17 C13.32932797 14.3581833 10.66414667 11.7108958 8 9.0625 C7.236875 8.30775391 6.47375 7.55300781 5.6875 6.77539062 C4.965625 6.05673828 4.24375 5.33808594 3.5 4.59765625 C2.8296875 3.93258057 2.159375 3.26750488 1.46875 2.58227539 C0 1 0 1 0 0 Z " fill="#1E1E1E" transform="translate(79,150)"/>
<path d="M0 0 C0.66 0 1.32 0 2 0 C2 0.66 2 1.32 2 2 C9.92 1.67 17.84 1.34 26 1 C25.67 1.66 25.34 2.32 25 3 C14.605 3.495 14.605 3.495 4 4 C4.99 5.485 4.99 5.485 6 7 C3 7 3 7 0.8125 5 C0.214375 4.34 -0.38375 3.68 -1 3 C-0.67 2.01 -0.34 1.02 0 0 Z " fill="#060606" transform="translate(5,98)"/>
<path d="M0 0 C2.15377564 2.62198774 3.40072174 4.64404172 4 8 C4.66 8 5.32 8 6 8 C6 8.66 6 9.32 6 10 C7.1446875 10.433125 7.1446875 10.433125 8.3125 10.875 C11 12 11 12 14 14 C10.80097361 14.08886184 8.07322544 13.91058531 5 13 C5 12.34 5 11.68 5 11 C4.34 11 3.68 11 3 11 C3 10.34 3 9.68 3 9 C2.34 8.67 1.68 8.34 1 8 C1 7.34 1 6.68 1 6 C0.01 5.34 -0.98 4.68 -2 4 C-1.34 4 -0.68 4 0 4 C0 2.68 0 1.36 0 0 Z " fill="#181818" transform="translate(84,102)"/>
<path d="M0 0 C3.65141356 1.5255906 5.90118112 3.72480909 8.625 6.5625 C11.51070681 9.69042054 11.51070681 9.69042054 15 12 C14.67 12.99 14.34 13.98 14 15 C13.34 15 12.68 15 12 15 C10.44921875 13.42578125 10.44921875 13.42578125 8.6875 11.3125 C6.56355316 8.80197706 4.44498656 6.39176579 2.0625 4.125 C0 2 0 2 0 0 Z " fill="#4B4B4B" transform="translate(74,74)"/>
<path d="M0 0 C2 3.75 2 3.75 2 6 C2.680625 5.835 3.36125 5.67 4.0625 5.5 C9.5223821 4.57065837 13.96533282 4.55894925 19 7 C18.34 7.66 17.68 8.32 17 9 C16.01 8.67 15.02 8.34 14 8 C11.60509014 7.93029948 9.20832309 7.91551997 6.8125 7.9375 C5.54019531 7.94652344 4.26789063 7.95554687 2.95703125 7.96484375 C1.98121094 7.97644531 1.00539062 7.98804687 0 8 C-0.79953138 4.71303767 -1.09658936 3.28976808 0 0 Z " fill="#353535" transform="translate(60,77)"/>
<path d="M0 0 C0.99 0.33 1.98 0.66 3 1 C-0.63 4.63 -4.26 8.26 -8 12 C-8.99 11.67 -9.98 11.34 -11 11 C-11 9.35 -11 7.7 -11 6 C-10.67 6.99 -10.34 7.98 -10 9 C-8.70756532 7.8758824 -7.41607925 6.75067408 -6.125 5.625 C-5.40570313 4.99851562 -4.68640625 4.37203125 -3.9453125 3.7265625 C-2.5923402 2.52573166 -1.2791655 1.2791655 0 0 Z " fill="#1E1E1E" transform="translate(152,116)"/>
<path d="M0 0 C1.31223496 3.93670488 0.24296256 6.12488144 -1 10 C-1.33 10 -1.66 10 -2 10 C-2.125 4.25 -2.125 4.25 -1 2 C-1.680625 2.165 -2.36125 2.33 -3.0625 2.5 C-6.4164822 3.07089059 -9.60389805 3.06659023 -13 3 C-8.48332093 -0.01111938 -5.3360009 -0.10067926 0 0 Z " fill="#393939" transform="translate(85,93)"/>
<path d="M0 0 C3.38197228 1.12732409 4.24057814 2.14182373 6.5 4.8125 C7.0878125 5.49957031 7.675625 6.18664062 8.28125 6.89453125 C9.91149424 8.89158044 11.47060322 10.9250562 13 13 C10 13 10 13 7.7734375 11.171875 C6.98195313 10.37265625 6.19046875 9.5734375 5.375 8.75 C4.57835938 7.96109375 3.78171875 7.1721875 2.9609375 6.359375 C1.08356869 4.10054878 0.38070118 2.86182269 0 0 Z " fill="#181818" transform="translate(86,140)"/>
<path d="M0 0 C0.33 0 0.66 0 1 0 C1.2475 0.928125 1.495 1.85625 1.75 2.8125 C3.62799988 7.60139968 6.58220217 8.81882785 11 11 C10.38511719 10.96519531 9.77023438 10.93039063 9.13671875 10.89453125 C7.92435547 10.85392578 7.92435547 10.85392578 6.6875 10.8125 C5.88699219 10.77769531 5.08648437 10.74289063 4.26171875 10.70703125 C1.52148416 11.06198392 0.70828921 11.89366282 -1 14 C-1 13.34 -1 12.68 -1 12 C-1.66 11.67 -2.32 11.34 -3 11 C-2.01 10.34 -1.02 9.68 0 9 C0.36362818 6.79274927 0.36362818 6.79274927 0.1875 4.375 C0.14689453 3.14910156 0.14689453 3.14910156 0.10546875 1.8984375 C0.07066406 1.27195312 0.03585938 0.64546875 0 0 Z " fill="#313131" transform="translate(91,98)"/>
<path d="M0 0 C0 3 0 3 -2.5546875 5.8125 C-3.65409093 6.8826215 -4.76122487 7.94484461 -5.875 9 C-10.27475427 13.20066705 -10.27475427 13.20066705 -14 18 C-14.66 18 -15.32 18 -16 18 C-14.6415798 14.95667235 -13.11536976 12.87690849 -10.7421875 10.546875 C-10.11699219 9.928125 -9.49179688 9.309375 -8.84765625 8.671875 C-8.19667969 8.03765625 -7.54570312 7.4034375 -6.875 6.75 C-6.21628906 6.1003125 -5.55757812 5.450625 -4.87890625 4.78125 C-3.25703357 3.18288273 -1.6306719 1.58938103 0 0 Z " fill="#E4E4E4" transform="translate(188,108)"/>
<path d="M0 0 C0.66 0 1.32 0 2 0 C0.34908222 4.29238623 -2.73754566 6.8793915 -6 10 C-6.99 9.67 -7.98 9.34 -9 9 C-7.73532205 5.20596616 -6.38302487 4.93315707 -3 3 C-2.1646875 2.1646875 -2.1646875 2.1646875 -1.3125 1.3125 C-0.879375 0.879375 -0.44625 0.44625 0 0 Z " fill="#080808" transform="translate(107,186)"/>
<path d="M0 0 C0.9911276 4.08840133 1.44966578 7.8031194 1 12 C-1.375 14.9375 -1.375 14.9375 -4 17 C-4.66 17 -5.32 17 -6 17 C-6 16.34 -6 15.68 -6 15 C-5.154375 14.2575 -4.30875 13.515 -3.4375 12.75 C-0.64221148 10.22249659 -0.64221148 10.22249659 -1.0625 6.875 C-1.90673098 3.84803479 -1.90673098 3.84803479 -4 1 C-2 0 -2 0 0 0 Z " fill="#202020" transform="translate(108,92)"/>
<path d="M0 0 C-1.40844718 3.21524305 -3.10344786 5.32183868 -5.625 7.75 C-6.57246094 8.67039062 -6.57246094 8.67039062 -7.5390625 9.609375 C-8.02117187 10.06828125 -8.50328125 10.5271875 -9 11 C-9.99 10.67 -10.98 10.34 -12 10 C-10.38113585 8.32737283 -8.7547271 6.66204463 -7.125 5 C-6.22007813 4.071875 -5.31515625 3.14375 -4.3828125 2.1875 C-2 0 -2 0 0 0 Z " fill="#191919" transform="translate(88,42)"/>
<path d="M0 0 C0.33 0.99 0.66 1.98 1 3 C-1.64 5.64 -4.28 8.28 -7 11 C-7.99 10.67 -8.98 10.34 -10 10 C-6.7 6.7 -3.4 3.4 0 0 Z " fill="#232323" transform="translate(113,155)"/>
<path d="M0 0 C0 3 0 3 -2.1171875 5.48046875 C-3.02726562 6.37378906 -3.93734375 7.26710938 -4.875 8.1875 C-5.77992187 9.08855469 -6.68484375 9.98960938 -7.6171875 10.91796875 C-10 13 -10 13 -12 13 C-12 12.34 -12 11.68 -12 11 C-10.64453125 9.66796875 -10.64453125 9.66796875 -8.8125 8.1875 C-5.6877219 5.60257178 -2.82336603 2.90892257 0 0 Z " fill="#353535" transform="translate(86,113)"/>
<path d="M0 0 C-1.38188453 3.21043882 -2.92421903 5.04936365 -5.625 7.25 C-6.57246094 8.03117187 -6.57246094 8.03117187 -7.5390625 8.828125 C-8.02117187 9.21484375 -8.50328125 9.6015625 -9 10 C-9 7 -9 7 -7.5390625 5.17578125 C-6.90742187 4.56089844 -6.27578125 3.94601563 -5.625 3.3125 C-4.68527344 2.37857422 -4.68527344 2.37857422 -3.7265625 1.42578125 C-2 0 -2 0 0 0 Z " fill="#484848" transform="translate(126,74)"/>
<path d="M0 0 C2.22825644 2.22825644 2.69239369 3.65761628 3.625 6.625 C3.88539062 7.44226563 4.14578125 8.25953125 4.4140625 9.1015625 C4.60742188 9.72804687 4.80078125 10.35453125 5 11 C4.01 11.495 4.01 11.495 3 12 C1.68 11.01 0.36 10.02 -1 9 C-0.01 9 0.98 9 2 9 C1.67 8.2575 1.34 7.515 1 6.75 C0 4 0 4 0 0 Z " fill="#272727" transform="translate(82,129)"/>
<path d="M0 0 C0.99 0.33 1.98 0.66 3 1 C2.2884375 1.5878125 2.2884375 1.5878125 1.5625 2.1875 C-0.35179633 4.40808374 -0.61266988 6.13375709 -1 9 C-1.268125 8.4225 -1.53625 7.845 -1.8125 7.25 C-3.01719859 4.9674132 -4.40798115 3.0262058 -6 1 C-4.7934375 1.0309375 -4.7934375 1.0309375 -3.5625 1.0625 C-1.06645115 1.29633621 -1.06645115 1.29633621 0 0 Z " fill="#171717" transform="translate(102,166)"/>
<path d="M0 0 C0.33 1.32 0.66 2.64 1 4 C6.28 4 11.56 4 17 4 C17 4.33 17 4.66 17 5 C11.06 5.33 5.12 5.66 -1 6 C-0.67 4.02 -0.34 2.04 0 0 Z " fill="#303030" transform="translate(60,135)"/>
<path d="M0 0 C0.33 0.66 0.66 1.32 1 2 C-2.33333333 5.33333333 -5.66666667 8.66666667 -9 12 C-9 9 -9 9 -7.03125 6.73828125 C-5.77828125 5.53751953 -5.77828125 5.53751953 -4.5 4.3125 C-3.6646875 3.50425781 -2.829375 2.69601563 -1.96875 1.86328125 C-1.3190625 1.24839844 -0.669375 0.63351563 0 0 Z " fill="#F2F2F2" transform="translate(57,74)"/>
<path d="M0 0 C5.94 0.33 11.88 0.66 18 1 C18 1.33 18 1.66 18 2 C12.72 2 7.44 2 2 2 C1.67 3.32 1.34 4.64 1 6 C0.67 4.02 0.34 2.04 0 0 Z " fill="#5A5A5A" transform="translate(59,59)"/>
<path d="M0 0 C0.99 0.33 1.98 0.66 3 1 C-1.296875 5.00390625 -1.296875 5.00390625 -3 6 C-5.203125 5.65234375 -5.203125 5.65234375 -7 5 C-5.90554162 4.13342884 -4.79902219 3.28207276 -3.6875 2.4375 C-3.07261719 1.96183594 -2.45773438 1.48617187 -1.82421875 0.99609375 C-1.22222656 0.66738281 -0.62023438 0.33867188 0 0 Z " fill="#202020" transform="translate(61,84)"/>
<path d="M0 0 C0.99 0.33 1.98 0.66 3 1 C0.69 3.31 -1.62 5.62 -4 8 C-4.66 7.34 -5.32 6.68 -6 6 C-4.02 4.02 -2.04 2.04 0 0 Z " fill="#151515" transform="translate(122,171)"/>
<path d="M0 0 C0.33 0 0.66 0 1 0 C1 1.98 1 3.96 1 6 C1.66 6 2.32 6 3 6 C2.34 9.3 1.68 12.6 1 16 C0.67 16 0.34 16 0 16 C0 10.72 0 5.44 0 0 Z " fill="#030303" transform="translate(140,121)"/>
<path d="M0 0 C3.3 0.66 6.6 1.32 10 2 C10 2.33 10 2.66 10 3 C6.04 3 2.08 3 -2 3 C-1.34 2.67 -0.68 2.34 0 2 C0 1.34 0 0.68 0 0 Z " fill="#151515" transform="translate(127,57)"/>
<path d="M0 0 C0.99 0.33 1.98 0.66 3 1 C3.66666667 2.66666667 4.33333333 4.33333333 5 6 C5.99 6.33 6.98 6.66 8 7 C6.68 7.33 5.36 7.66 4 8 C0 2.25 0 2.25 0 0 Z " fill="#282828" transform="translate(109,54)"/>
<path d="M0 0 C0.66 0 1.32 0 2 0 C2.33 2.64 2.66 5.28 3 8 C2.01 8.495 2.01 8.495 1 9 C0.67 6.03 0.34 3.06 0 0 Z " fill="#464646" transform="translate(93,116)"/>
<path d="M0 0 C4.875 4.75 4.875 4.75 6 7 C2.73045798 6.43628586 1.17424117 5.50037734 -1 3 C-0.67 2.01 -0.34 1.02 0 0 Z " fill="#222222" transform="translate(31,99)"/>
<path d="M0 0 C-0.33 2.31 -0.66 4.62 -1 7 C-1.33 7 -1.66 7 -2 7 C-2 5.35 -2 3.7 -2 2 C-3.98 2 -5.96 2 -8 2 C-4.91190305 0.23537317 -3.76687864 0 0 0 Z " fill="#2C2C2C" transform="translate(141,59)"/>
<path d="M0 0 C0.99 0.33 1.98 0.66 3 1 C0.03 3.475 0.03 3.475 -3 6 C-3.66 5.34 -4.32 4.68 -5 4 C-2.6875 1.9375 -2.6875 1.9375 0 0 Z " fill="#1A1A1A" transform="translate(35,68)"/>
</svg>
