<?xml version="1.0" standalone="no"?>
<!DOCTYPE svg PUBLIC "-//W3C//DTD SVG 20010904//EN"
 "http://www.w3.org/TR/2001/REC-SVG-20010904/DTD/svg10.dtd">
<svg version="1.0" xmlns="http://www.w3.org/2000/svg"
 width="262.000000pt" height="262.000000pt" viewBox="0 0 262.000000 262.000000"
 preserveAspectRatio="xMidYMid meet">
<metadata>
Created by potrace 1.10, written by Peter Selinger 2001-2011
</metadata>
<g transform="translate(0.000000,262.000000) scale(0.100000,-0.100000)"
fill="#000000" stroke="none">
<path d="M1280 2585 c-23 -37 -31 -41 -126 -50 -85 -8 -233 -49 -333 -92 -81
-35 -84 -35 -117 -19 -49 23 -54 21 -54 -22 0 -43 -9 -57 -65 -97 -81 -58
-166 -138 -226 -213 -101 -127 -95 -122 -139 -122 -43 0 -50 -12 -25 -46 21
-27 18 -58 -9 -112 -49 -99 -106 -320 -106 -413 0 -23 -9 -34 -41 -54 l-40
-26 38 -28 c38 -27 39 -29 50 -122 15 -114 52 -247 97 -344 l33 -72 -18 -34
c-10 -19 -18 -37 -19 -41 0 -4 21 -10 46 -14 50 -7 48 -5 141 -124 57 -72 144
-154 228 -216 52 -38 55 -42 55 -86 0 -43 5 -45 54 -21 35 16 36 16 115 -20
97 -45 194 -72 325 -92 103 -15 140 -31 151 -65 9 -28 17 -25 42 14 19 29 30
36 70 41 160 20 269 51 449 125 26 11 36 11 64 -3 47 -24 50 -22 50 27 0 41 2
45 58 84 90 63 192 162 257 251 l60 81 48 0 c53 0 56 6 28 60 -19 34 -19 35 4
80 54 107 115 332 115 423 0 35 13 51 66 83 17 10 14 14 -24 39 -34 23 -42 33
-42 59 0 92 -55 303 -105 409 -29 58 -31 85 -10 113 25 33 18 44 -29 44 -43 0
-45 2 -92 68 -59 82 -190 214 -266 266 -53 36 -57 42 -63 87 -4 27 -11 49 -16
49 -4 0 -24 -7 -43 -17 -34 -16 -36 -15 -118 19 -131 56 -289 98 -367 98 -45
0 -74 15 -96 49 -11 17 -23 31 -27 31 -3 0 -16 -16 -28 -35z m120 -123 c16
-37 12 -51 -19 -83 -56 -55 -153 -29 -167 46 -4 25 2 40 43 92 l48 61 43 -46
c23 -26 47 -57 52 -70z m-180 51 c0 -5 -7 -17 -15 -27 -21 -28 -18 -79 6 -110
12 -15 20 -28 18 -30 -2 -1 -24 -10 -49 -19 -25 -9 -62 -31 -83 -48 -36 -30
-42 -31 -136 -32 l-98 -2 9 27 c13 37 -13 90 -55 110 l-32 15 30 15 c52 27
217 77 300 92 98 17 105 18 105 9z m276 -8 c93 -16 206 -49 289 -85 l49 -21
-30 -18 c-46 -28 -56 -46 -53 -93 l4 -43 -97 2 c-93 1 -99 3 -135 32 -21 17
-58 39 -83 48 -25 9 -47 18 -49 19 -2 2 6 15 18 30 27 34 27 84 0 118 -24 31
-27 30 87 11z m-743 -127 c81 -26 103 -50 93 -101 -12 -62 -79 -101 -134 -78
-45 19 -54 44 -47 127 4 41 10 74 13 74 3 0 37 -10 75 -22z m1201 -48 c9 -85
3 -106 -34 -125 -46 -24 -78 -19 -116 19 -36 36 -45 78 -21 110 11 15 125 64
153 65 7 1 14 -28 18 -69z m-527 -25 c43 -18 103 -57 103 -67 0 -4 -21 -17
-46 -30 -91 -45 -164 -157 -164 -250 0 -48 -17 -31 -23 23 -12 98 -75 187
-164 230 -23 11 -43 24 -43 27 0 13 72 56 123 74 60 22 152 19 214 -7z m-775
-92 c6 -12 25 -27 42 -34 17 -7 33 -14 35 -15 2 -2 -13 -22 -33 -45 -20 -24
-42 -58 -48 -77 -10 -25 -25 -40 -61 -58 -26 -14 -65 -41 -87 -60 l-39 -36
-14 34 c-20 47 -44 63 -94 63 -23 0 -43 1 -43 2 0 5 97 123 134 162 22 24 75
71 116 104 l75 60 3 -39 c1 -21 8 -49 14 -61z m1433 20 c65 -55 195 -196 216
-235 8 -15 6 -17 -19 -12 -42 8 -90 -20 -108 -62 l-15 -36 -41 37 c-22 21 -60
46 -84 56 -34 15 -48 29 -63 63 -10 24 -36 62 -56 85 -33 36 -35 41 -16 41 11
0 35 12 51 28 25 22 31 35 32 69 0 51 3 50 103 -34z m-1061 -9 c14 -5 13 -10
-4 -34 -56 -78 -68 -199 -30 -288 22 -51 19 -87 -4 -47 -6 11 -34 43 -63 72
-58 58 -120 83 -210 83 -29 0 -53 3 -53 8 1 22 83 122 124 150 74 50 187 76
240 56z m743 -19 c63 -26 113 -66 154 -124 21 -30 39 -58 39 -63 0 -4 -24 -8
-53 -8 -29 0 -76 -7 -104 -15 -56 -17 -135 -80 -159 -127 -26 -50 -38 -19 -14
36 37 83 24 210 -30 286 -15 21 -17 30 -8 34 22 10 135 -2 175 -19z m-615 -30
c64 -42 108 -115 123 -202 l7 -42 -49 -6 c-26 -3 -81 -18 -122 -32 -88 -29
-92 -27 -112 64 -16 68 -2 144 37 210 23 40 29 44 52 38 15 -3 44 -17 64 -30z
m433 -9 c38 -65 51 -141 36 -209 -20 -91 -24 -93 -112 -64 -41 14 -96 29 -122
32 l-49 6 7 42 c10 60 42 131 73 160 30 29 111 77 129 77 7 0 24 -20 38 -44z
m-720 -221 c27 -17 63 -50 80 -73 29 -42 29 -44 10 -54 -11 -6 -53 -44 -93
-84 -40 -41 -76 -74 -79 -74 -17 0 -76 56 -98 94 -30 52 -48 137 -39 189 l6
39 82 -4 c71 -3 89 -7 131 -33z m1109 -8 c13 -87 -31 -201 -98 -252 -18 -14
-36 -25 -39 -25 -3 0 -39 33 -79 74 -40 40 -82 78 -92 83 -19 10 -19 11 2 44
50 81 122 118 228 119 l72 0 6 -43z m-1354 -25 c0 -94 24 -156 83 -217 29 -29
59 -55 67 -57 8 -3 12 -9 7 -13 -4 -5 -24 0 -45 10 -48 23 -158 31 -208 15
-21 -7 -56 -23 -77 -36 -51 -33 -60 -25 -52 50 7 68 39 147 81 202 26 33 118
104 136 104 5 0 8 -26 8 -58z m1442 27 c86 -55 140 -143 159 -259 15 -86 6
-103 -38 -73 -15 11 -49 28 -75 38 -59 22 -164 17 -220 -10 -39 -19 -69 -12
-33 7 11 6 41 32 66 57 54 53 79 121 79 213 0 32 3 58 7 58 3 0 28 -14 55 -31z
m-1658 2 c30 -33 35 -72 15 -112 -31 -62 -113 -77 -141 -26 -15 28 -58 130
-58 139 0 6 44 12 131 16 24 1 41 -4 53 -17z m1995 3 c2 -2 -11 -38 -29 -80
-25 -56 -40 -78 -59 -86 -43 -16 -83 2 -109 50 -25 45 -24 65 10 107 21 26 22
27 102 20 45 -4 83 -9 85 -11z m-1137 -67 c-26 -27 -52 -98 -52 -140 l0 -30
-42 48 c-23 26 -60 56 -83 66 l-40 18 40 17 c50 21 131 42 169 43 l29 1 -21
-23z m239 -8 c38 -12 69 -25 69 -29 0 -3 -16 -12 -35 -19 -19 -6 -55 -35 -80
-64 l-45 -52 0 31 c0 39 -27 119 -46 135 -45 37 20 36 137 -2z m-141 -43 c23
-51 32 -130 22 -176 -6 -28 -12 -35 -32 -35 l-25 0 -3 133 c-3 143 4 157 38
78z m-62 -83 l-3 -128 -25 0 c-20 0 -26 7 -32 35 -10 46 0 125 22 178 32 73
41 53 38 -85z m-1058 73 c0 -7 13 -25 29 -40 25 -24 36 -28 75 -24 39 3 45 1
39 -12 -4 -8 -8 -52 -8 -96 -1 -74 -4 -85 -30 -115 -25 -31 -39 -57 -58 -112
-6 -16 -8 -16 -39 3 -42 25 -78 25 -111 0 -14 -11 -27 -20 -30 -20 -6 0 18
145 37 218 35 134 96 260 96 198z m2226 -164 c23 -80 44 -187 44 -226 0 -17
-1 -17 -25 -2 -34 22 -81 20 -117 -5 -34 -24 -31 -26 -46 26 -6 22 -26 57 -44
79 -30 36 -32 44 -33 120 0 44 -4 88 -8 96 -6 13 0 15 38 12 51 -5 75 11 102
63 l16 29 24 -54 c13 -30 35 -92 49 -138z m-876 164 c0 -2 -15 -26 -33 -52
-18 -27 -50 -79 -71 -116 -34 -57 -42 -65 -60 -58 -32 11 -30 30 12 100 26 43
55 76 87 98 43 29 65 39 65 28z m-605 -68 c0 -46 6 -75 22 -105 13 -24 21 -43
20 -43 -2 0 -23 10 -48 22 -29 14 -64 22 -101 22 -32 1 -58 4 -58 7 0 6 157
159 162 159 2 0 3 -28 3 -62z m108 43 c37 -24 78 -75 106 -128 27 -53 26 -57
-3 -71 -23 -10 -27 -7 -82 86 -31 53 -64 105 -72 115 -14 15 -13 17 4 17 10 0
32 -9 47 -19z m653 -79 c30 -31 54 -58 54 -61 0 -3 -26 -6 -58 -7 -48 0 -91
-13 -143 -41 -4 -2 3 15 15 39 14 30 21 62 21 104 l0 62 28 -20 c16 -11 53
-45 83 -76z m-668 -26 c34 -57 62 -108 62 -114 0 -6 -9 -16 -19 -22 -17 -8
-24 -5 -45 23 -14 18 -34 53 -45 78 -22 50 -38 139 -24 139 5 0 37 -47 71
-104z m538 57 c-7 -55 -56 -160 -86 -188 -19 -17 -21 -17 -39 -1 -19 17 -18
20 46 127 36 60 70 109 76 109 6 0 7 -18 3 -47z m-948 -114 c28 -5 58 -16 68
-23 17 -13 17 -16 -4 -64 -12 -27 -27 -82 -34 -122 l-12 -72 -46 7 c-92 13
-177 76 -217 160 -19 41 -11 55 49 86 71 36 124 44 196 28z m1463 -21 c26 -11
55 -28 64 -38 15 -17 15 -21 -9 -67 -42 -84 -112 -134 -206 -148 l-46 -7 -12
72 c-7 40 -22 94 -34 121 -25 59 -21 66 49 85 58 17 130 10 194 -18z m-1146
-17 c67 -32 100 -63 92 -86 -10 -25 -36 -18 -136 41 -123 72 -125 74 -65 74
33 0 68 -9 109 -29z m813 24 c-3 -3 -56 -35 -118 -70 -87 -50 -116 -62 -127
-54 -21 18 -15 36 20 63 55 42 118 66 176 66 30 0 52 -2 49 -5z m-840 -110
c83 -47 87 -51 76 -79 -8 -22 -27 -20 -82 9 -60 31 -85 52 -117 94 -36 50 -33
68 8 43 17 -11 69 -41 115 -67z m478 52 c93 -47 144 -130 144 -237 0 -107 -51
-190 -143 -237 -68 -34 -149 -41 -217 -18 -233 77 -242 414 -14 505 68 28 161
22 230 -13z m362 -8 c-29 -51 -64 -82 -140 -120 l-58 -29 -10 26 c-6 15 -8 29
-5 32 10 11 220 132 228 132 5 0 -2 -19 -15 -41z m-1000 -3 c7 -19 35 -55 61
-78 l49 -44 -60 -11 c-34 -7 -73 -22 -94 -38 l-34 -26 0 33 c0 50 45 198 60
198 3 0 12 -16 18 -34z m1070 -28 c24 -71 43 -168 32 -168 -4 0 -15 9 -25 20
-19 21 -102 50 -143 50 -22 0 -19 5 26 46 28 25 57 61 64 80 6 18 15 34 18 34
4 0 16 -28 28 -62z m433 -88 c29 -76 23 -183 -14 -256 -41 -81 -51 -84 -81
-27 -27 55 -92 118 -140 138 -18 8 -56 17 -84 21 -29 3 -52 10 -52 14 0 4 24
10 54 13 97 10 182 70 226 162 l23 47 23 -29 c13 -15 33 -53 45 -83z m-1891
60 c44 -86 132 -148 226 -157 30 -3 54 -9 54 -13 0 -4 -23 -11 -52 -14 -28 -4
-66 -13 -84 -21 -48 -20 -113 -83 -140 -138 -30 -57 -40 -54 -81 27 -31 61
-41 155 -24 223 13 53 56 133 71 133 5 0 19 -18 30 -40z m-162 -96 c12 -8 22
-18 23 -22 10 -70 4 -98 -24 -124 -46 -44 -70 -37 -177 52 -24 19 -24 21 -6
31 10 7 35 26 55 44 54 48 76 52 129 19z m2253 -19 c20 -18 45 -38 55 -44 18
-10 17 -13 -16 -42 -85 -74 -121 -84 -166 -45 -24 20 -28 30 -25 72 2 50 20
80 56 94 28 12 55 2 96 -35z m-1493 -17 l3 -28 -135 0 c-75 0 -136 2 -136 4 0
2 16 14 36 26 40 25 117 38 184 30 40 -4 45 -8 48 -32z m830 8 c60 -31 47 -36
-91 -36 -125 0 -135 1 -140 20 -3 10 0 24 7 29 28 24 169 15 224 -13z m-825
-77 c9 -35 -9 -44 -95 -44 -66 0 -93 5 -130 24 -27 12 -48 26 -48 30 0 4 61 7
134 7 116 -1 136 -3 139 -17z m863 8 c3 -3 -17 -15 -43 -28 -38 -19 -65 -24
-130 -24 -87 0 -106 8 -93 40 7 19 16 20 135 18 70 -1 129 -4 131 -6z m-1174
-93 c9 -45 26 -100 38 -123 l21 -42 -38 -16 c-64 -26 -150 -28 -213 -4 -30 12
-66 30 -80 40 -22 17 -23 22 -11 48 38 86 106 146 189 169 73 20 75 18 94 -72z
m1368 48 c44 -22 64 -40 98 -91 24 -35 42 -71 40 -79 -2 -8 -28 -29 -58 -46
-49 -28 -64 -31 -135 -31 -52 1 -93 6 -117 17 l-37 17 24 55 c14 31 30 88 36
126 l12 70 41 -6 c23 -3 66 -18 96 -32z m-1261 -20 c19 -7 52 -12 75 -13 36 0
39 -2 22 -12 -46 -28 -96 -81 -108 -113 -6 -19 -15 -34 -18 -34 -10 0 -50 121
-57 174 l-6 50 29 -21 c16 -11 44 -25 63 -31z m1088 4 c-8 -54 -47 -176 -57
-176 -4 0 -10 11 -14 23 -8 33 -42 74 -89 108 l-40 29 40 0 c47 0 98 16 133
41 14 10 27 19 29 19 2 0 1 -20 -2 -44z m-1598 -47 c6 -20 26 -55 43 -79 29
-39 32 -50 33 -119 0 -42 4 -84 9 -94 8 -16 4 -17 -33 -11 -51 8 -86 -13 -108
-64 l-15 -36 -25 59 c-13 33 -33 88 -44 122 -22 68 -60 266 -50 260 73 -40
115 -42 147 -6 20 23 27 17 43 -32z m2109 10 c27 -9 37 -8 68 10 20 12 38 21
39 19 5 -5 -24 -158 -40 -217 -37 -131 -95 -250 -95 -195 0 8 -14 29 -31 46
-27 28 -34 30 -74 25 l-43 -6 9 32 c5 18 8 62 7 98 -3 61 -1 68 28 100 27 32
40 56 58 113 6 17 8 18 24 2 10 -8 33 -21 50 -27z m-1378 11 c15 -28 10 -33
-68 -76 -37 -20 -87 -50 -111 -66 -24 -16 -45 -27 -48 -24 -9 8 27 65 63 100
32 31 125 86 146 86 4 0 12 -9 18 -20z m637 -5 c55 -28 143 -114 143 -140 0
-20 8 -24 -122 54 -110 64 -113 67 -102 95 8 22 22 20 81 -9z m46 -133 c50
-29 83 -53 77 -57 -43 -27 -250 64 -250 110 0 28 23 35 54 16 17 -10 71 -41
119 -69z m-639 62 c9 -24 -18 -50 -88 -84 -66 -32 -162 -52 -155 -32 5 15 198
130 220 131 9 1 20 -6 23 -15z m60 -56 c7 -12 -5 -41 -54 -123 -48 -81 -65
-103 -72 -91 -17 30 14 130 62 194 32 44 46 48 64 20z m410 -11 c14 -18 34
-53 45 -78 24 -55 39 -143 23 -138 -7 2 -40 51 -76 109 -59 97 -63 106 -48
123 21 24 27 22 56 -16z m-936 -91 c47 0 82 7 116 22 53 24 76 20 36 -7 -94
-63 -131 -129 -138 -247 l-4 -81 -43 24 c-54 30 -114 95 -143 153 -26 55 -44
140 -36 178 l6 28 70 -35 c59 -30 80 -35 136 -35z m602 64 c12 -8 12 -14 -4
-47 -33 -70 -84 -129 -135 -156 -31 -18 -52 -24 -56 -17 -4 6 -1 9 6 8 7 -2
42 48 78 109 64 110 79 123 111 103z m311 -105 c37 -60 65 -112 63 -114 -10
-10 -97 55 -122 92 -66 95 -76 142 -30 135 15 -2 41 -35 89 -113z m703 20
c-17 -108 -77 -202 -163 -257 -25 -15 -49 -28 -53 -28 -4 0 -8 27 -8 60 0 106
-48 203 -125 250 -42 26 -37 47 6 25 16 -9 54 -20 84 -26 66 -12 158 7 215 45
l35 23 8 -26 c4 -14 4 -44 1 -66z m-1220 43 c-12 -22 -18 -56 -19 -99 0 -64
-1 -66 -20 -56 -23 12 -145 134 -145 145 0 4 26 7 58 7 37 0 71 7 97 20 22 12
41 20 43 19 2 -1 -5 -17 -14 -36z m737 -7 l59 -6 -41 -48 c-22 -26 -60 -61
-84 -77 l-42 -29 4 44 c5 38 -4 79 -32 147 -6 14 -1 13 35 -5 24 -11 69 -23
101 -26z m-443 -99 c3 -145 -4 -157 -41 -73 -14 31 -20 68 -21 116 0 79 7 97
37 93 21 -3 22 -8 25 -136z m84 83 c11 -72 -24 -215 -53 -215 -11 0 -12 253
-2 264 4 4 16 6 27 4 17 -2 22 -13 28 -53z m-552 -42 c19 -25 58 -64 87 -86
29 -21 53 -43 53 -47 0 -4 -19 -28 -41 -54 -56 -63 -107 -88 -196 -94 -72 -5
-73 -5 -84 24 -13 36 -3 125 20 179 16 37 100 125 118 125 5 0 24 -21 43 -47z
m1057 5 c25 -24 54 -61 63 -83 24 -54 34 -144 20 -179 -10 -28 -11 -29 -83
-24 -89 6 -140 31 -196 94 -22 26 -41 50 -41 54 0 4 27 28 61 55 33 26 72 65
86 86 14 22 30 39 35 39 4 0 29 -19 55 -42z m-661 -109 c8 -26 24 -55 34 -64
31 -28 24 -33 -32 -23 -54 9 -178 47 -178 53 0 2 16 12 35 21 20 9 55 38 78
64 41 46 42 47 45 21 2 -14 10 -47 18 -72z m311 -15 c18 -8 33 -16 33 -18 0
-7 -123 -45 -177 -54 -29 -5 -53 -7 -53 -5 0 2 9 14 20 26 22 23 50 105 50
146 0 23 4 21 47 -28 26 -29 62 -60 80 -67z m-1132 20 c13 -14 27 -38 30 -54
8 -35 -17 -88 -48 -99 -17 -7 -154 5 -164 14 -6 4 48 130 63 147 26 28 89 24
119 -8z m1932 6 c14 -16 66 -142 60 -146 -1 0 -33 -6 -70 -12 -85 -14 -113 -4
-133 45 -14 33 -14 40 2 75 21 47 37 57 87 58 25 0 43 -6 54 -20z m-1348 -104
c-37 -84 -23 -209 31 -286 l21 -29 -26 -7 c-66 -16 -194 23 -262 80 -31 26
-93 111 -93 128 0 4 33 8 73 8 108 1 197 50 242 134 28 51 39 28 14 -28z m675
5 c53 -74 110 -104 213 -109 45 -3 83 -7 83 -11 0 -16 -73 -112 -103 -135 -70
-53 -190 -88 -252 -72 l-26 7 21 29 c54 76 67 203 31 286 -24 53 -24 54 -12
54 5 0 25 -22 45 -49z m-544 -1 c31 -10 79 -22 108 -26 l53 -7 -6 -41 c-17
-104 -69 -174 -162 -219 l-44 -22 -20 25 c-37 48 -61 131 -56 190 7 77 32 134
54 125 10 -3 43 -15 73 -25z m493 -31 c26 -73 19 -150 -20 -221 -24 -45 -33
-53 -55 -51 -38 2 -104 47 -138 95 -32 44 -65 140 -57 163 3 7 35 18 74 25 37
6 88 20 113 30 25 10 49 17 55 16 5 -1 18 -27 28 -57z m-1027 -56 c33 -14 47
-27 61 -58 10 -22 35 -59 57 -82 34 -38 36 -43 17 -43 -11 0 -35 -13 -52 -28
-26 -23 -31 -35 -31 -70 0 -23 -2 -42 -6 -42 -30 1 -312 283 -312 312 0 4 17
8 38 8 39 0 81 32 96 73 5 17 10 15 47 -17 23 -19 61 -43 85 -53z m1584 63 c0
-27 55 -66 93 -66 20 0 37 -3 37 -6 0 -34 -280 -314 -313 -314 -3 0 -5 18 -5
41 0 47 -28 84 -74 94 l-29 7 38 41 c21 23 46 60 56 82 14 31 28 44 61 58 24
10 61 33 83 52 37 32 53 36 53 11z m-847 -56 c12 -101 73 -187 164 -231 23
-11 43 -24 43 -28 0 -12 -104 -69 -145 -80 -80 -20 -233 17 -279 68 -16 18
-15 20 27 40 91 44 152 130 164 231 3 28 9 50 13 50 4 0 10 -22 13 -50z m-517
-231 c24 -14 35 -30 40 -55 10 -54 -7 -79 -70 -103 -108 -40 -102 -42 -110 38
-9 88 -3 109 37 126 44 19 64 18 103 -6z m1132 -15 c21 -24 22 -32 16 -98 -4
-39 -8 -73 -10 -75 -7 -8 -141 43 -156 61 -24 27 -23 70 3 102 41 53 106 57
147 10z m-832 -57 c27 -19 65 -41 86 -48 41 -13 46 -20 24 -38 -30 -25 -36
-67 -15 -107 10 -21 17 -39 15 -41 -5 -5 -176 26 -236 43 -70 20 -190 67 -190
74 1 3 15 14 33 25 42 27 62 67 49 103 l-9 27 97 -2 c95 -1 99 -2 146 -36z
m643 17 c-16 -44 12 -97 66 -119 l29 -13 -39 -17 c-110 -46 -241 -82 -369
-100 l-49 -7 22 28 c28 35 28 94 1 119 -28 25 -26 30 19 45 21 7 61 29 87 49
47 36 49 36 145 36 95 0 96 0 88 -21z m-368 -113 c44 -44 38 -68 -33 -151
l-38 -44 -37 44 c-37 42 -62 84 -63 107 0 6 12 25 26 42 22 26 33 31 71 31 36
0 50 -6 74 -29z"/>
</g>
</svg>
