<?xml version="1.0" standalone="no"?>
<!DOCTYPE svg PUBLIC "-//W3C//DTD SVG 20010904//EN"
 "http://www.w3.org/TR/2001/REC-SVG-20010904/DTD/svg10.dtd">
<svg version="1.0" xmlns="http://www.w3.org/2000/svg"
 width="300.000000pt" height="300.000000pt" viewBox="0 0 300.000000 300.000000"
 preserveAspectRatio="xMidYMid meet">
<metadata>
Created by potrace 1.10, written by Peter Selinger 2001-2011
</metadata>
<g transform="translate(0.000000,300.000000) scale(0.100000,-0.100000)"
fill="#000000" stroke="none">
<path d="M1408 2954 c-51 -16 -128 -80 -128 -107 0 -22 -14 -22 -31 0 -22 26
-90 53 -135 53 -46 0 -135 -24 -173 -48 -67 -41 -111 -105 -111 -162 l0 -31
-30 16 c-142 74 -385 -120 -344 -274 l11 -39 -48 0 c-113 0 -224 -123 -236
-261 -4 -46 0 -65 20 -103 l24 -47 -30 -7 c-43 -9 -101 -67 -126 -123 -49
-116 -34 -242 38 -303 l39 -32 -29 -18 c-36 -22 -68 -85 -76 -147 -7 -60 19
-164 54 -214 26 -37 86 -77 117 -77 12 0 11 -9 -9 -46 -16 -29 -25 -63 -25
-90 0 -145 147 -303 261 -280 27 5 27 4 17 -25 -36 -103 72 -255 209 -295 54
-16 88 -13 145 11 14 6 18 2 18 -18 0 -95 115 -193 241 -204 79 -8 124 3 163
38 l34 29 20 -33 c53 -90 177 -129 309 -95 50 12 133 82 133 111 0 21 16 22
27 2 17 -29 85 -55 145 -55 139 0 278 102 278 205 0 22 3 26 18 20 57 -24 91
-27 144 -11 138 40 246 192 210 295 -10 29 -10 30 17 25 75 -15 176 52 226
152 39 78 42 175 8 223 -27 36 -28 41 -7 41 29 0 93 43 118 79 34 49 60 153
53 212 -8 62 -40 125 -76 147 l-29 18 39 32 c72 61 87 187 38 303 -25 56 -83
114 -126 123 l-30 7 24 47 c20 38 24 57 20 103 -12 144 -150 283 -260 262 -26
-5 -26 -5 -16 27 31 88 -45 215 -165 275 -58 29 -132 33 -176 10 l-30 -16 0
31 c0 104 -145 211 -286 210 -43 0 -111 -28 -133 -53 -17 -22 -31 -22 -31 0 0
9 -18 33 -40 54 -67 64 -179 85 -282 53z m222 -37 c63 -32 93 -79 87 -135 -6
-55 -12 -60 -40 -35 -12 11 -52 41 -89 67 -38 26 -68 51 -68 57 0 5 -7 9 -15
9 -8 0 -15 -4 -15 -10 0 -5 -42 -39 -92 -75 -99 -70 -106 -70 -107 -2 -3 123
197 196 339 124z m-468 -47 c60 -17 94 -52 105 -109 l10 -50 -67 -69 c-69 -69
-104 -125 -125 -197 -9 -30 -18 -41 -41 -47 -16 -4 -34 -6 -40 -4 -21 8 -154
255 -154 286 0 75 74 152 176 183 59 19 88 20 136 7z m817 -6 c106 -29 181
-106 181 -183 0 -28 -95 -211 -142 -273 -19 -26 -88 -14 -88 16 0 46 -60 147
-128 217 l-69 70 10 49 c11 56 37 85 94 105 50 18 75 18 142 -1z m-183 -247
c88 -95 140 -230 120 -311 -6 -23 -9 -24 -32 -16 -38 15 -115 12 -148 -5 -36
-19 -33 -20 -52 18 -9 17 -45 69 -80 113 -35 45 -69 94 -75 108 -17 35 -30 33
-55 -12 -12 -20 -45 -66 -74 -102 -29 -36 -61 -82 -71 -102 -11 -21 -21 -38
-23 -38 -1 0 -18 7 -35 16 -31 15 -68 16 -156 2 -19 -3 -20 2 -19 72 1 63 6
85 33 137 43 86 125 169 261 267 l114 82 118 -84 c64 -46 143 -111 174 -145z
m-1003 38 c25 -12 50 -46 109 -148 l76 -132 -27 -27 c-24 -26 -29 -27 -66 -17
-54 15 -197 6 -267 -16 l-57 -18 -35 29 c-55 46 -67 121 -30 195 18 37 99 108
147 130 51 23 108 24 150 4z m1585 -11 c28 -14 71 -48 96 -74 78 -88 82 -184
10 -244 l-35 -29 -57 18 c-70 22 -213 31 -267 16 -37 -10 -42 -9 -67 17 l-26
27 76 132 c84 144 104 162 178 163 23 0 61 -11 92 -26z m-803 -224 c12 -14 43
-55 68 -92 l46 -68 -33 -49 c-42 -62 -69 -142 -91 -268 l-18 -98 -42 3 -43 4
-16 91 c-22 123 -51 208 -91 268 l-34 49 47 68 c26 38 67 95 92 128 l45 60 23
-36 c13 -19 34 -46 47 -60z m-505 -79 c0 -22 3 -46 6 -54 3 -10 -3 -20 -15
-27 -18 -9 -27 -6 -55 15 -18 14 -38 25 -44 25 -19 0 -14 15 16 42 29 27 46
36 75 37 13 1 17 -7 17 -38z m928 25 c15 -8 35 -23 44 -33 17 -19 16 -21 -29
-52 -49 -35 -79 -33 -77 3 0 9 1 34 2 56 2 44 14 50 60 26z m-1497 -54 l31
-28 -91 -42 c-50 -23 -103 -45 -117 -48 -21 -6 -25 -11 -19 -32 7 -28 25 -225
21 -229 -2 -2 -19 3 -39 12 -105 44 -111 185 -13 318 57 77 168 101 227 49z
m2170 5 c69 -42 126 -134 135 -215 7 -65 -26 -130 -80 -155 -21 -10 -40 -17
-42 -14 -5 4 14 206 22 233 4 17 0 23 -20 28 -14 3 -67 25 -117 48 l-91 42 31
28 c41 36 109 39 162 5z m-1777 -11 c27 -8 66 -27 88 -41 l40 -27 -35 -36
c-40 -41 -57 -78 -57 -123 0 -29 -1 -29 -57 -29 -32 -1 -103 -7 -157 -14 -55
-7 -107 -11 -118 -8 -22 5 -23 -11 -3 -41 8 -13 33 -67 54 -120 22 -53 49
-111 61 -128 12 -16 21 -31 19 -33 -2 -1 -18 -12 -36 -24 -33 -24 -73 -94 -73
-130 0 -26 -2 -27 -43 -6 -60 30 -99 66 -138 127 -53 82 -77 166 -94 335 -8
79 -17 147 -19 151 -4 6 66 40 225 107 127 54 250 68 343 40z m1521 -24 c44
-16 123 -49 176 -73 l96 -43 -8 -35 c-4 -20 -12 -88 -18 -151 -21 -230 -101
-379 -233 -434 l-36 -15 -7 37 c-6 37 -48 112 -63 112 -4 0 -15 7 -26 15 -18
13 -18 15 2 42 11 16 40 76 63 133 23 58 48 112 56 121 19 23 16 42 -5 37 -11
-3 -63 1 -118 8 -54 7 -125 13 -156 14 -57 0 -58 0 -58 29 0 43 -15 75 -55
120 l-36 39 33 23 c95 68 246 76 393 21z m-1150 -16 c41 -17 87 -79 114 -151
17 -44 61 -237 61 -264 0 -5 -19 -13 -42 -20 -51 -15 -133 -65 -153 -94 -14
-20 -16 -19 -82 39 -162 142 -220 226 -211 309 14 124 197 229 313 181z m653
-15 c99 -51 149 -122 138 -199 -10 -76 -69 -153 -209 -276 -66 -58 -68 -59
-82 -39 -20 29 -102 79 -152 94 -24 7 -43 16 -43 22 0 28 43 215 61 261 26 71
73 134 112 152 42 19 122 12 175 -15z m-973 -251 c11 -48 89 -144 184 -223
l87 -73 -18 -30 c-10 -16 -19 -32 -20 -36 -2 -4 -57 12 -123 35 -103 35 -133
42 -214 44 -83 2 -95 5 -109 24 -20 28 -113 251 -107 257 7 7 188 30 252 31
61 1 62 1 68 -29z m1334 15 c57 -8 106 -16 107 -18 5 -5 -83 -212 -106 -249
-18 -31 -20 -31 -92 -29 -76 2 -185 -23 -298 -68 -30 -13 -56 -19 -57 -14 -2
4 -11 21 -21 37 l-18 30 66 54 c113 94 191 188 206 246 6 24 11 26 58 26 28 0
98 -7 155 -15z m-1987 -100 c44 -15 45 -17 55 -74 15 -81 50 -157 100 -218 37
-45 41 -56 36 -87 l-6 -36 -158 0 -158 0 -39 38 c-31 29 -42 49 -51 92 -24
117 32 254 119 289 35 14 50 13 102 -4z m2531 1 c101 -43 156 -225 99 -333
-40 -77 -58 -83 -236 -83 l-156 0 0 24 c0 14 -5 28 -10 31 -7 4 3 22 23 45 19
20 46 57 60 81 29 50 67 161 67 195 0 17 10 26 43 37 54 20 70 20 110 3z
m-1238 -101 c66 -17 149 -69 182 -113 56 -76 68 -113 68 -212 0 -84 -3 -102
-28 -152 -33 -67 -90 -121 -166 -157 -77 -36 -202 -37 -273 -2 -152 74 -228
235 -188 400 25 106 125 204 240 235 71 19 94 19 165 1z m-540 -162 c105 -34
119 -42 115 -59 -3 -10 -5 -67 -5 -126 l0 -108 -110 -37 c-85 -29 -130 -38
-200 -41 -82 -3 -93 -2 -125 20 -54 36 -80 97 -80 189 0 60 5 85 23 120 53
101 164 113 382 42z m1235 24 c64 -34 90 -88 90 -186 0 -88 -25 -150 -73 -185
-25 -18 -43 -21 -130 -20 -92 1 -113 5 -212 40 -80 29 -109 44 -107 54 20 85
20 142 0 218 -2 8 25 23 67 38 188 68 292 80 365 41z m-1660 -189 c0 -11 -19
-26 -52 -42 -60 -29 -68 -24 -68 41 0 71 4 74 65 44 34 -16 55 -32 55 -43z
m1890 2 c0 -69 -7 -73 -68 -44 -54 26 -71 59 -34 70 9 3 33 13 52 23 42 23 50
15 50 -49z m-2026 -50 c10 -33 9 -37 -24 -71 -46 -48 -85 -126 -109 -218 -18
-74 -19 -74 -64 -92 -58 -23 -97 -13 -149 38 -94 91 -96 296 -4 356 19 13 56
17 173 19 81 2 152 3 157 3 5 -1 14 -16 20 -35z m2384 18 c13 -7 35 -32 50
-57 50 -85 28 -232 -46 -304 -52 -51 -91 -61 -149 -38 -45 17 -46 19 -64 89
-24 93 -63 173 -109 219 -30 29 -36 41 -30 57 5 12 10 28 13 36 4 13 29 15
158 12 94 -1 163 -7 177 -14z m-2240 -62 c13 -48 65 -116 89 -116 8 0 13 -3
11 -7 -2 -5 -17 -35 -34 -68 -17 -33 -45 -97 -64 -143 -18 -45 -36 -85 -41
-88 -21 -13 -6 -24 34 -24 24 0 90 -7 148 -16 57 -8 116 -13 132 -10 26 5 27
4 27 -32 0 -42 29 -96 68 -129 l26 -22 -25 -20 c-47 -39 -128 -63 -214 -63
-96 1 -176 23 -327 93 -59 27 -114 49 -123 49 -9 0 -14 4 -10 9 3 6 10 61 15
123 20 221 57 333 139 421 42 45 101 85 126 87 6 0 16 -20 23 -44z m1820 25
c42 -22 109 -90 139 -141 38 -63 64 -172 79 -324 8 -82 13 -150 12 -150 -287
-129 -341 -147 -458 -148 -81 0 -164 25 -210 63 l-25 21 27 22 c39 32 68 86
68 128 0 36 1 37 28 32 15 -3 74 2 131 10 58 9 124 16 148 16 40 0 55 11 34
24 -5 3 -25 48 -46 98 -20 51 -50 118 -66 148 -22 40 -26 56 -17 59 30 10 78
71 90 115 7 25 16 46 20 46 5 0 25 -9 46 -19z m-353 -155 c44 -8 100 -12 126
-9 l45 5 41 -88 c22 -49 46 -105 53 -124 7 -19 17 -39 22 -45 28 -31 -3 -39
-207 -51 l-100 -6 -19 46 c-21 52 -127 171 -210 235 l-56 43 20 25 c11 14 20
31 20 38 0 9 30 2 93 -21 50 -19 128 -40 172 -48z m-898 40 l22 -34 -55 -43
c-83 -64 -189 -183 -210 -235 l-19 -46 -100 6 c-136 8 -215 17 -215 25 0 4 22
56 49 116 81 184 69 168 118 161 56 -7 176 15 283 53 47 16 90 30 95 30 6 0
20 -15 32 -33z m71 -87 c39 -34 126 -79 155 -79 21 0 21 3 -3 -120 -35 -174
-76 -260 -144 -301 -44 -27 -119 -25 -181 5 -62 31 -86 51 -119 100 -58 87
-23 173 131 324 58 56 110 102 115 102 6 0 26 -14 46 -31z m635 -71 c173 -168
198 -258 99 -362 -50 -52 -124 -86 -187 -86 -117 0 -180 89 -226 323 -23 119
-23 117 -1 117 28 0 135 56 162 85 13 14 29 25 35 25 7 0 60 -46 118 -102z
m-339 -113 c22 -125 58 -229 94 -274 28 -35 29 -38 14 -66 -8 -17 -40 -63 -71
-103 -31 -40 -64 -85 -73 -100 -10 -15 -20 -26 -23 -25 -7 3 -143 185 -169
226 -17 28 -17 30 2 50 45 49 82 149 107 290 l17 97 43 0 42 0 17 -95z m-1244
-91 c-5 -54 -12 -114 -16 -131 -6 -29 -4 -33 15 -33 17 0 195 -73 211 -87 8
-7 -54 -52 -82 -58 -78 -18 -187 63 -227 168 -26 71 -26 109 -1 165 15 33 29
47 62 61 24 10 44 18 45 16 2 -1 -1 -46 -7 -101z m2461 42 c74 -122 -30 -328
-179 -352 -36 -6 -48 -3 -82 21 -22 15 -40 31 -40 34 0 8 187 91 205 91 22 0
25 14 16 71 -5 30 -12 86 -16 126 l-6 72 42 -17 c24 -9 49 -28 60 -46z m-1719
-268 c12 -10 15 -25 11 -71 -5 -53 -7 -57 -27 -51 -28 8 -96 52 -95 62 0 7 79
70 90 71 3 1 12 -5 21 -11z m955 -23 c23 -16 42 -33 43 -37 0 -11 -58 -49 -89
-58 l-29 -8 -5 57 c-4 44 -1 59 11 69 19 14 15 16 69 -23z m-611 -137 c30 -37
64 -84 76 -104 20 -33 23 -35 32 -19 6 10 27 39 46 64 19 25 55 75 82 109 26
35 50 72 53 82 6 18 7 18 48 0 49 -23 78 -24 129 -6 l38 13 6 -35 c10 -52 -11
-145 -45 -206 -39 -67 -138 -165 -238 -233 -43 -30 -89 -65 -104 -79 l-26 -24
-19 21 c-10 12 -58 48 -106 81 -195 134 -293 277 -286 417 2 44 6 55 18 52 85
-23 106 -24 150 -4 l45 20 23 -41 c13 -22 48 -71 78 -108z m-758 95 c63 -19
210 -22 252 -6 21 9 29 6 52 -19 l27 -29 -23 -37 c-13 -20 -49 -80 -79 -133
-61 -104 -80 -119 -153 -119 -125 0 -248 118 -248 238 0 52 2 57 44 94 24 21
50 36 57 34 8 -3 39 -13 71 -23z m1830 1 c19 -15 41 -43 49 -62 48 -114 -95
-282 -241 -282 -73 0 -92 15 -153 119 -31 53 -66 113 -80 134 l-24 38 27 29
c24 25 31 27 53 18 45 -19 199 -13 266 10 33 11 62 20 64 21 2 1 20 -11 39
-25z m-1422 -80 c14 -4 24 -13 24 -24 0 -54 66 -158 150 -240 46 -44 47 -46
39 -89 -20 -107 -132 -149 -264 -100 -95 36 -155 102 -155 172 0 46 146 301
167 293 8 -4 26 -9 39 -12z m1028 -116 c80 -138 90 -173 62 -226 -35 -66 -127
-121 -216 -129 -103 -10 -165 27 -186 109 l-14 51 51 50 c83 81 149 187 149
237 0 14 34 33 72 39 3 1 40 -58 82 -131z m-600 -347 c18 -20 19 -20 61 17 24
20 70 56 103 80 l61 42 7 -35 c9 -48 -1 -78 -37 -120 -78 -88 -271 -86 -353 5
-36 40 -44 74 -30 127 6 20 11 18 88 -37 45 -33 90 -68 100 -79z"/>
<path d="M1433 1609 c-83 -53 -94 -156 -22 -225 27 -26 37 -29 94 -29 57 0 67
3 95 30 44 42 56 96 35 152 -32 83 -130 119 -202 72z m123 -15 c42 -20 64 -59
64 -114 0 -102 -138 -148 -204 -69 -51 60 -31 155 39 185 40 18 60 17 101 -2z"/>
<path d="M1480 1505 c-7 -8 -10 -22 -6 -30 7 -20 55 -20 62 0 7 17 -12 45 -31
45 -7 0 -18 -7 -25 -15z"/>
</g>
</svg>
